<svg id="Layer_1" data-name="Layer 1" xmlns="http://www.w3.org/2000/svg" xmlns:xlink="http://www.w3.org/1999/xlink" viewBox="0 0 50 50"><defs><style>.cls-1{fill:none;}.cls-2{clip-path:url(#clip-path);}.cls-3{fill:#fff;}</style><clipPath id="clip-path"><rect class="cls-1" width="50" height="50"/></clipPath></defs><g class="cls-2"><path class="cls-3" d="M20.84,3.34a17.5,17.5,0,1,0,17.5,17.5A17.5,17.5,0,0,0,20.84,3.34Zm0,1.67a15.81,15.81,0,0,1,12.93,6.72l-2.08,2.08a3.31,3.31,0,0,0-5,2.86,3.2,3.2,0,0,0,.47,1.68l-5.46,5.46a3.22,3.22,0,0,0-3.36,0L14.54,20A3.23,3.23,0,0,0,15,18.34a3.32,3.32,0,0,0-6.54-.84H5.38A15.84,15.84,0,0,1,20.84,5ZM31.67,16.67A1.67,1.67,0,1,1,30,15,1.66,1.66,0,0,1,31.67,16.67Zm-10,10A1.67,1.67,0,1,1,20,25,1.66,1.66,0,0,1,21.68,26.67Zm-8.33-8.33a1.67,1.67,0,1,1-1.67-1.67A1.66,1.66,0,0,1,13.35,18.34ZM28.54,34.68A15.82,15.82,0,0,1,5.11,19.17H8.47a3.34,3.34,0,0,0,3.21,2.5,3.3,3.3,0,0,0,1.68-.47L17.15,25a3.27,3.27,0,0,0-.47,1.68,3.33,3.33,0,1,0,6.66,0A3.18,3.18,0,0,0,22.87,25l5.46-5.46A3.2,3.2,0,0,0,30,20a3.31,3.31,0,0,0,2.86-5l1.81-1.82A15.82,15.82,0,0,1,28.54,34.68Z"/><path class="cls-3" d="M41.67,8.34a3.32,3.32,0,0,0,3.21-2.5H50V4.18H44.88A3.32,3.32,0,0,0,38.34,5a3.23,3.23,0,0,0,.47,1.68L37.35,8.16a20.83,20.83,0,1,0-5.2,30.16l2.51,2.51L35.84,42l6.7,6.7a4.37,4.37,0,0,0,6.18-6.17L42,35.83l-1.17-1.18-2.52-2.51a20.74,20.74,0,0,0,0-22.61L40,7.87A3.23,3.23,0,0,0,41.67,8.34Zm0-5A1.67,1.67,0,1,1,40,5,1.67,1.67,0,0,1,41.67,3.34Zm5.87,40.38a2.7,2.7,0,1,1-3.77,3.86l-.05,0L37,40.83,40.84,37Zm-7.88-7.89-3.82,3.82-2.31-2.3.35-.29.37-.3.54-.47.27-.25q.51-.48,1-1l.25-.27.46-.54c.11-.12.21-.25.31-.37s.19-.23.28-.34ZM36.43,32c-.26.37-.53.73-.82,1.07l-.26.3c-.25.3-.52.59-.79.86l-.36.36c-.28.28-.56.54-.86.79l-.3.26c-.35.29-.7.56-1.07.82A19.19,19.19,0,1,1,36.43,32Z"/></g></svg>