<svg id="Layer_1" data-name="Layer 1" xmlns="http://www.w3.org/2000/svg" xmlns:xlink="http://www.w3.org/1999/xlink" viewBox="0 0 50 50"><defs><style>.cls-1{fill:none;}.cls-2{clip-path:url(#clip-path);}.cls-3{fill:#fff;}</style><clipPath id="clip-path"><rect class="cls-1" width="50" height="50"/></clipPath></defs><g class="cls-2"><path class="cls-3" d="M49.84,6.48A1,1,0,0,0,49,5.89l-4.81,0,0-5a1,1,0,0,0-1-.95,1,1,0,0,0-.68.28L36.76,6.06a1,1,0,0,0-.28.67v5.5l-1.14,1.15-.11-.15a21.11,21.11,0,1,0,3.24,3.68A1,1,0,0,0,36.9,18,19.19,19.19,0,1,1,34,14.66l.07,0-4.1,4.1a13.35,13.35,0,1,0,3.14,4,1,1,0,1,0-1.7.88,11.41,11.41,0,0,1,1.29,5.28,11.55,11.55,0,1,1-4.09-8.77l-4.09,4.09a5.76,5.76,0,1,0,2.42,4.68,1,1,0,0,0-1.91,0,3.87,3.87,0,1,1-1.9-3.29l-2.62,2.62a1,1,0,0,0,1.33,1.38l0,0,3.39-3.39L37.84,13.59h5.39a.94.94,0,0,0,.68-.29l5.73-5.78A1,1,0,0,0,49.84,6.48ZM38.4,7.13l3.82-3.86,0,3.21L38.4,10.32Zm4.43,4.54H39.76l3.83-3.83,3.06,0Z"/></g></svg>