<svg id="Layer_1" data-name="Layer 1" xmlns="http://www.w3.org/2000/svg" xmlns:xlink="http://www.w3.org/1999/xlink" viewBox="0 0 50 50"><defs><style>.cls-1{fill:none;}.cls-2{clip-path:url(#clip-path);}.cls-3{fill:#fff;}</style><clipPath id="clip-path"><rect class="cls-1" width="50" height="50"/></clipPath></defs><g class="cls-2"><path class="cls-3" d="M46.87,37.5H19.79a3.12,3.12,0,0,1-3.12-3.12V15.63a3.13,3.13,0,0,1,3.12-3.13H46.87A3.13,3.13,0,0,1,50,15.63V34.38A3.13,3.13,0,0,1,46.87,37.5ZM19.79,14.58a1,1,0,0,0-1,1.05V34.38a1,1,0,0,0,1,1H46.87a1,1,0,0,0,1.05-1V15.63a1,1,0,0,0-1.05-1.05Z"/><path class="cls-3" d="M30.21,31.25a1,1,0,0,1-1-1V22.92a2.09,2.09,0,1,0-4.17,0v7.29a1,1,0,0,1-2.08,0V22.92a4.17,4.17,0,1,1,8.33,0v7.29A1,1,0,0,1,30.21,31.25Z"/><path class="cls-3" d="M30.21,27.08H24A1,1,0,0,1,24,25h6.25a1,1,0,0,1,0,2.08Z"/><path class="cls-3" d="M38.54,31.25H36.46a1,1,0,0,1-1-1V19.79a1,1,0,0,1,1-1h2.08A5.22,5.22,0,0,1,43.75,24V26A5.22,5.22,0,0,1,38.54,31.25Zm-1-2.08h1A3.14,3.14,0,0,0,41.67,26V24a3.14,3.14,0,0,0-3.13-3.13h-1Z"/><path class="cls-3" d="M11.46,16.67H1a1,1,0,0,1,0-2.09H11.46a1,1,0,0,1,0,2.09Z"/><path class="cls-3" d="M11.46,22.92H1a1,1,0,0,1,0-2.09H11.46a1,1,0,0,1,0,2.09Z"/><path class="cls-3" d="M11.46,29.17H1a1,1,0,0,1,0-2.09H11.46a1,1,0,0,1,0,2.09Z"/><path class="cls-3" d="M11.46,35.42H1a1,1,0,0,1,0-2.09H11.46a1,1,0,0,1,0,2.09Z"/><path class="cls-3" d="M49,2.08H1A1,1,0,0,1,1,0H49a1,1,0,0,1,0,2.08Z"/><path class="cls-3" d="M49,8.33H1A1,1,0,0,1,1,6.25H49a1,1,0,0,1,0,2.08Z"/><path class="cls-3" d="M49,43.75H1a1,1,0,0,1,0-2.08H49a1,1,0,0,1,0,2.08Z"/><path class="cls-3" d="M49,50H1a1,1,0,0,1,0-2.08H49A1,1,0,0,1,49,50Z"/></g></svg>