<svg width="40" height="40" viewBox="0 0 40 40" fill="none" xmlns="http://www.w3.org/2000/svg">
<path d="M16.6763 2.67383C8.94727 2.67383 2.68164 8.93945 2.68164 16.6685C2.68164 24.3976 8.94727 30.6632 16.6763 30.6632C24.4054 30.6632 30.671 24.3976 30.671 16.6685C30.6626 8.94295 24.4019 2.68224 16.6763 2.67383ZM16.6763 4.00666C20.7928 4.0099 24.6502 6.01614 27.0164 9.38462L25.3504 11.0507C24.9449 10.8053 24.4808 10.674 24.0069 10.6708C22.5347 10.6708 21.3412 11.8643 21.3412 13.3365C21.3436 13.8109 21.4741 14.2758 21.7191 14.6819L17.3554 19.0456C16.5291 18.5418 15.4907 18.5418 14.6644 19.0456L11.6336 16.0148C11.8786 15.6086 12.0091 15.1437 12.0114 14.6693C12.0133 13.2 10.8237 12.0075 9.35444 12.0056C8.13932 12.0041 7.07764 12.8261 6.77476 14.0029H4.30236C5.56413 8.17616 10.7146 4.0154 16.6763 4.00666ZM25.3397 13.3365C25.3397 14.0726 24.743 14.6693 24.0069 14.6693C23.2708 14.6693 22.6741 14.0726 22.6741 13.3365C22.6741 12.6003 23.2708 12.0036 24.0069 12.0036C24.743 12.0036 25.3397 12.6003 25.3397 13.3365ZM17.3427 21.3334C17.3427 22.0696 16.7461 22.6662 16.0099 22.6662C15.2738 22.6662 14.6771 22.0696 14.6771 21.3334C14.6771 20.5973 15.2738 20.0006 16.0099 20.0006C16.7461 20.0006 17.3427 20.5973 17.3427 21.3334ZM10.6786 14.6693C10.6786 15.4054 10.0819 16.0021 9.34578 16.0021C8.60964 16.0021 8.01295 15.4054 8.01295 14.6693C8.01295 13.9331 8.60964 13.3365 9.34578 13.3365C10.0819 13.3365 10.6786 13.9331 10.6786 14.6693ZM22.8285 27.7398C20.9465 28.7848 18.829 29.3322 16.6763 29.3303C9.68815 29.3351 4.01922 23.6739 4.01447 16.6858C4.01414 16.2348 4.03796 15.784 4.08577 15.3356H6.77476C7.07772 16.5089 8.13399 17.3303 9.34578 17.3349C9.82018 17.3325 10.2851 17.202 10.6913 16.957L13.7221 19.9878C13.4771 20.394 13.3466 20.8589 13.3443 21.3333C13.3443 22.8055 14.5377 23.999 16.0099 23.999C17.4821 23.999 18.6756 22.8055 18.6756 21.3333C18.6732 20.8589 18.5427 20.394 18.2977 19.9878L22.6614 15.6242C23.0676 15.8692 23.5325 15.9997 24.0069 16.002C25.4791 16.002 26.6725 14.8086 26.6725 13.3364C26.6702 12.862 26.5397 12.3971 26.2947 11.9909L27.7475 10.5388C31.1391 16.6471 28.9368 24.3483 22.8285 27.7398Z" fill="white"/>
<path d="M33.3358 6.67409C34.5476 6.66951 35.6039 5.84824 35.9069 4.67485H40V3.34202H35.9069C35.6039 2.16863 34.5476 1.34736 33.3358 1.34278C31.8636 1.34278 30.6702 2.53625 30.6702 4.00844C30.6725 4.48284 30.803 4.94775 31.048 5.35393L29.8771 6.52482C24.2747 -0.774167 13.816 -2.14948 6.517 3.45298C-0.781979 9.05544 -2.15729 19.5142 3.44517 26.8132C8.7335 33.7029 18.4274 35.3741 25.7174 30.653L27.7286 32.6642L28.6709 33.6066L34.0356 38.9712C35.4 40.3356 37.612 40.3356 38.9764 38.9712C40.3408 37.6068 40.3408 35.3948 38.9764 34.0304L33.6117 28.6658L32.6694 27.7234L30.6582 25.7122C34.2284 20.213 34.2284 13.1277 30.6582 7.6284L31.991 6.29557C32.3969 6.54064 32.8617 6.67143 33.3358 6.67409ZM33.3358 2.67561C34.072 2.67561 34.6687 3.2723 34.6687 4.00844C34.6687 4.74458 34.072 5.34127 33.3358 5.34127C32.5997 5.34127 32.003 4.74458 32.003 4.00844C32.003 3.2723 32.5998 2.67561 33.3358 2.67561ZM38.0341 34.9727C38.8876 35.8071 38.9031 37.1754 38.0688 38.0289C37.2344 38.8824 35.8661 38.898 35.0126 38.0636C35.0009 38.0522 34.9894 38.0406 34.9779 38.0289L29.6132 32.6642L32.6694 29.6081L38.0341 34.9727ZM31.7271 28.6658L28.6709 31.7219L26.8263 29.8773C26.9203 29.8053 27.0082 29.726 27.1009 29.6521C27.1935 29.5781 27.3008 29.4894 27.4001 29.4061C27.546 29.2835 27.69 29.1596 27.8313 29.0323C27.9039 28.9656 27.9732 28.899 28.0445 28.8324C28.3177 28.5765 28.5823 28.3119 28.8382 28.0387C28.9048 27.9674 28.9715 27.8981 29.0381 27.8254C29.1654 27.6841 29.2894 27.5402 29.412 27.3942C29.4955 27.2956 29.5775 27.1959 29.6579 27.095C29.7312 27.0031 29.8105 26.9151 29.8825 26.8211L31.7271 28.6658ZM29.1428 25.5703C28.9328 25.8635 28.7163 26.1507 28.4877 26.4273C28.421 26.5079 28.3497 26.5859 28.2811 26.6652C28.0772 26.9024 27.8666 27.1326 27.6493 27.3556C27.5547 27.4533 27.4585 27.5495 27.3608 27.6441C27.1386 27.8614 26.9085 28.072 26.6704 28.2759C26.5911 28.3425 26.5131 28.4152 26.4325 28.4825C26.1559 28.7111 25.8687 28.9277 25.5754 29.1376C18.6767 34.0661 9.08878 32.469 4.16023 25.5703C-0.768317 18.6715 0.828827 9.0836 7.72754 4.15505C14.6263 -0.7735 24.2142 0.823561 29.1428 7.72236C32.9564 13.0605 32.9564 20.2321 29.1428 25.5703Z" fill="white"/>
</svg>
