<svg width="40" height="40" viewBox="0 0 40 40" fill="none" xmlns="http://www.w3.org/2000/svg">
<path d="M39.8708 5.18579C39.7512 4.90089 39.4724 4.71552 39.1634 4.71552L35.3223 4.73547L35.3054 0.763903C35.3036 0.340241 34.9588 -0.00181475 34.535 7.24511e-06C34.3316 0.000870296 34.1368 0.0824765 33.9936 0.226894L29.4075 4.84748C29.2658 4.99036 29.1859 5.1832 29.185 5.38448V9.78489L28.2691 10.7039C28.2437 10.6606 28.2135 10.6202 28.1793 10.5835C21.2445 4.36973 10.5855 4.9543 4.37177 11.889C-1.842 18.8237 -1.25753 29.4828 5.67728 35.6965C12.6121 41.9103 23.271 41.3258 29.4848 34.391C34.6969 28.5743 35.2315 19.9394 30.7769 13.524C30.5346 13.1762 30.0561 13.0907 29.7083 13.333C29.3604 13.5753 29.2749 14.0538 29.5172 14.4016C34.3537 21.3658 32.6289 30.9321 25.6647 35.7686C18.7004 40.605 9.13427 38.8802 4.29774 31.9161C-0.538797 24.952 1.18615 15.3856 8.1503 10.5492C13.9932 6.4914 21.8582 6.97902 27.1552 11.7274C27.172 11.7428 27.195 11.7481 27.2135 11.7619L23.9323 15.0423C21.989 13.341 19.4934 12.4043 16.9106 12.4071C10.9789 12.4066 6.16998 17.2148 6.1696 23.1465C6.16922 29.0781 10.9774 33.887 16.909 33.8874C22.8407 33.8878 27.6496 29.0796 27.65 23.148C27.6501 21.4312 27.2387 19.7394 26.4501 18.2144C26.255 17.8382 25.7918 17.6913 25.4156 17.8864C25.0394 18.0816 24.8925 18.5448 25.0877 18.921C25.7677 20.2257 26.1206 21.676 26.1164 23.1472C26.1292 28.2442 22.0076 32.3865 16.9107 32.3992C11.8138 32.412 7.6715 28.2904 7.65874 23.1935C7.64599 18.0965 11.7675 13.9543 16.8644 13.9415C19.0549 13.9361 21.176 14.7099 22.8483 16.1247L19.5734 19.3989C17.5009 17.9304 14.6304 18.42 13.1618 20.4925C11.6933 22.5649 12.183 25.4355 14.2554 26.904C16.3279 28.3725 19.1984 27.8829 20.6669 25.8104C21.2185 25.0319 21.5144 24.1013 21.5135 23.1472C21.5135 22.7236 21.17 22.3801 20.7463 22.3801C20.3227 22.3801 19.9792 22.7236 19.9792 23.1472C19.9792 24.842 18.6053 26.2158 16.9106 26.2158C15.2158 26.2158 13.8419 24.842 13.8419 23.1472C13.8419 21.4525 15.2158 20.0786 16.9106 20.0786C17.4568 20.0811 17.9922 20.2311 18.4602 20.5128L16.3682 22.6048C16.0634 22.8991 16.055 23.3848 16.3494 23.6896C16.6437 23.9944 17.1294 24.0028 17.4341 23.7084C17.4406 23.7023 17.4468 23.6959 17.4529 23.6896L20.1633 20.9792L30.2698 10.8727H34.5805C34.7855 10.8719 34.9816 10.789 35.1251 10.6426L39.7081 6.01969C39.9254 5.7999 39.9895 5.47117 39.8708 5.18579ZM30.7194 5.70285L33.7757 2.61965L33.788 5.18579L30.7194 8.25442V5.70285ZM34.2606 9.33841H31.8057L34.8743 6.26978L37.3169 6.25751L34.2606 9.33841Z" fill="white"/>
</svg>
