<svg width="40" height="40" viewBox="0 0 40 40" fill="none" xmlns="http://www.w3.org/2000/svg">
<g clip-path="url(#clip0_1058_226)">
<path d="M37.5006 30H15.834C14.4557 30 13.334 28.8783 13.334 27.5V12.5C13.334 11.1217 14.4557 10 15.834 10H37.5006C38.879 10 40.0006 11.1217 40.0006 12.5V27.5C40.0006 28.8783 38.879 30 37.5006 30ZM15.834 11.6667C15.3756 11.6667 15.0006 12.04 15.0006 12.5V27.5C15.0006 27.96 15.3756 28.3333 15.834 28.3333H37.5006C37.959 28.3333 38.334 27.96 38.334 27.5V12.5C38.334 12.04 37.959 11.6667 37.5006 11.6667H15.834Z" fill="white"/>
<path d="M24.1673 25C23.7073 25 23.334 24.6267 23.334 24.1667V18.3333C23.334 17.415 22.5873 16.6667 21.6673 16.6667C20.7473 16.6667 20.0007 17.415 20.0007 18.3333V24.1667C20.0007 24.6267 19.6273 25 19.1673 25C18.7073 25 18.334 24.6267 18.334 24.1667V18.3333C18.334 16.495 19.829 15 21.6673 15C23.5056 15 25.0006 16.495 25.0006 18.3333V24.1667C25.0006 24.6267 24.6273 25 24.1673 25Z" fill="white"/>
<path d="M24.1673 21.6667H19.1673C18.7073 21.6667 18.334 21.2933 18.334 20.8333C18.334 20.3733 18.7073 20 19.1673 20H24.1673C24.6273 20 25.0006 20.3733 25.0006 20.8333C25.0006 21.2933 24.6273 21.6667 24.1673 21.6667Z" fill="white"/>
<path d="M30.834 25H29.1673C28.7073 25 28.334 24.6267 28.334 24.1667V15.8333C28.334 15.3733 28.7073 15 29.1673 15H30.834C33.1323 15 35.0006 16.87 35.0006 19.1667V20.8333C35.0006 23.13 33.1323 25 30.834 25ZM30.0006 23.3333H30.834C32.2123 23.3333 33.334 22.2117 33.334 20.8333V19.1667C33.334 17.7883 32.2123 16.6667 30.834 16.6667H30.0006V23.3333Z" fill="white"/>
<path d="M9.16667 13.3327H0.833333C0.373333 13.3327 0 12.9594 0 12.4994C0 12.0394 0.373333 11.666 0.833333 11.666H9.16667C9.62667 11.666 10 12.0394 10 12.4994C10 12.9594 9.62667 13.3327 9.16667 13.3327Z" fill="white"/>
<path d="M9.16667 18.3327H0.833333C0.373333 18.3327 0 17.9594 0 17.4994C0 17.0394 0.373333 16.666 0.833333 16.666H9.16667C9.62667 16.666 10 17.0394 10 17.4994C10 17.9594 9.62667 18.3327 9.16667 18.3327Z" fill="white"/>
<path d="M9.16667 23.3327H0.833333C0.373333 23.3327 0 22.9593 0 22.4993C0 22.0393 0.373333 21.666 0.833333 21.666H9.16667C9.62667 21.666 10 22.0393 10 22.4993C10 22.9593 9.62667 23.3327 9.16667 23.3327Z" fill="white"/>
<path d="M9.16667 28.3327H0.833333C0.373333 28.3327 0 27.9593 0 27.4993C0 27.0393 0.373333 26.666 0.833333 26.666H9.16667C9.62667 26.666 10 27.0393 10 27.4993C10 27.9593 9.62667 28.3327 9.16667 28.3327Z" fill="white"/>
<path d="M39.1667 1.66667H0.833333C0.373333 1.66667 0 1.29333 0 0.833333C0 0.373333 0.373333 0 0.833333 0H39.1667C39.6267 0 40 0.373333 40 0.833333C40 1.29333 39.6267 1.66667 39.1667 1.66667Z" fill="white"/>
<path d="M39.1667 6.66667H0.833333C0.373333 6.66667 0 6.29333 0 5.83333C0 5.37333 0.373333 5 0.833333 5H39.1667C39.6267 5 40 5.37333 40 5.83333C40 6.29333 39.6267 6.66667 39.1667 6.66667Z" fill="white"/>
<path d="M39.1667 35.0006H0.833333C0.373333 35.0006 0 34.6273 0 34.1673C0 33.7073 0.373333 33.334 0.833333 33.334H39.1667C39.6267 33.334 40 33.7073 40 34.1673C40 34.6273 39.6267 35.0006 39.1667 35.0006Z" fill="white"/>
<path d="M39.1667 40.0007H0.833333C0.373333 40.0007 0 39.6273 0 39.1673C0 38.7073 0.373333 38.334 0.833333 38.334H39.1667C39.6267 38.334 40 38.7073 40 39.1673C40 39.6273 39.6267 40.0007 39.1667 40.0007Z" fill="white"/>
</g>
<defs>
<clipPath id="clip0_1058_226">
<rect width="40" height="40" fill="white"/>
</clipPath>
</defs>
</svg>
