<svg width="40" height="40" viewBox="0 0 40 40" fill="none" xmlns="http://www.w3.org/2000/svg">
<path d="M5.46706 11.6479L7.84803 13.4334C8.1163 13.6349 8.48556 13.6349 8.75383 13.4334L11.1355 11.6479C11.7252 11.2028 12.0727 10.5074 12.0745 9.76849V9.37013C12.0741 8.55682 11.6529 7.80173 10.9612 7.37426C10.2695 6.94678 9.40574 6.90735 8.67829 7.27034C8.44096 7.38937 8.16089 7.38937 7.92357 7.27034C7.19612 6.90735 6.33233 6.94678 5.64063 7.37426C4.94892 7.80173 4.52771 8.55682 4.52734 9.37013V9.76849C4.52919 10.5077 4.8767 11.2031 5.46706 11.6479ZM6.03678 9.37013C6.03752 8.90728 6.41082 8.53176 6.87367 8.52771C7.00486 8.52881 7.13421 8.55977 7.25103 8.6191C7.91252 8.94781 8.69008 8.94781 9.35156 8.6191C9.61173 8.48901 9.92055 8.50302 10.1678 8.65595C10.4151 8.80925 10.5654 9.07937 10.5651 9.37013V9.76849C10.5643 10.0327 10.4398 10.2811 10.2294 10.4403L8.30093 11.8863L6.37249 10.4403C6.16207 10.2811 6.03752 10.0327 6.03678 9.76849V9.37013Z" fill="white"/>
<path d="M15.8485 13.5839H22.6409C23.0164 13.5839 23.3348 13.3079 23.3883 12.9365L24.143 7.65345C24.1739 7.43676 24.1095 7.21713 23.9661 7.05167C23.8228 6.88657 23.6145 6.79149 23.3956 6.79149H21.8862V5.28206C21.8862 4.86527 21.5483 4.52734 21.1315 4.52734H18.8673C18.6149 4.52734 18.3794 4.65338 18.2394 4.86306L16.954 6.79149H15.8485C15.4317 6.79149 15.0938 7.12942 15.0938 7.54621V12.8292C15.0938 13.246 15.4317 13.5839 15.8485 13.5839ZM16.6032 8.30093H17.3579C17.6103 8.30093 17.8458 8.1749 17.9859 7.96521L19.2712 6.03678H20.3768V7.54621C20.3768 7.963 20.7147 8.30093 21.1315 8.30093H22.5256L21.9864 12.0745H16.6032V8.30093Z" fill="white"/>
<path d="M28.723 10.2916L28.2627 12.5904C28.2082 12.862 28.3069 13.1417 28.5199 13.3189C28.7326 13.4962 29.0255 13.5423 29.2827 13.4395L31.698 12.4725L34.1132 13.4395C34.2024 13.4745 34.2971 13.4925 34.3929 13.4929C34.6199 13.4933 34.8348 13.3915 34.9781 13.2158C35.1219 13.0404 35.179 12.8097 35.1333 12.5874L34.673 10.2883L36.0052 8.95648C36.1972 8.76411 36.2713 8.48331 36.1987 8.22166C36.1264 7.95965 35.9186 7.75697 35.6551 7.69063L33.7952 7.2252L32.3396 4.8855C32.1925 4.67692 31.9534 4.55273 31.698 4.55273C31.4426 4.55273 31.2034 4.67692 31.0564 4.8855L29.6008 7.2252L27.7409 7.69063C27.4774 7.75697 27.2696 7.95965 27.1973 8.22166C27.1247 8.48331 27.1988 8.76411 27.3908 8.95648L28.723 10.2916ZM30.2641 8.61818C30.4543 8.57064 30.6186 8.45125 30.7222 8.28468L31.698 6.71628L32.6738 8.28763C32.7774 8.45419 32.9417 8.57396 33.1319 8.62113L33.9953 8.83708L33.3206 9.51257C33.1429 9.69056 33.0652 9.9452 33.1138 10.1917L33.3803 11.521L31.9788 10.9594C31.7982 10.8879 31.5978 10.8879 31.4172 10.9594L30.0157 11.521L30.2822 10.1917C30.3308 9.9452 30.253 9.69056 30.0754 9.51257L29.4007 8.83708L30.2641 8.61818Z" fill="white"/>
<path d="M0 6.03807V12.0758C0.0025796 14.5758 2.0283 16.6015 4.5283 16.6041H24.1509V20.0652C24.1509 20.6758 24.5187 21.226 25.0829 21.4596C25.6467 21.6929 26.2957 21.5639 26.7276 21.1324L31.2559 16.6041H35.4717C37.9717 16.6015 39.9974 14.5758 40 12.0758V6.03807C39.9974 3.53807 37.9717 1.51235 35.4717 1.50977H4.5283C2.0283 1.51235 0.0025796 3.53807 0 6.03807ZM1.50943 6.03807C1.50943 4.37091 2.86114 3.0192 4.5283 3.0192H35.4717C37.1389 3.0192 38.4906 4.37091 38.4906 6.03807V12.0758C38.4906 13.743 37.1389 15.0947 35.4717 15.0947H30.9434C30.7433 15.0947 30.5513 15.1743 30.4098 15.3158L25.6604 20.0652V15.8494C25.6604 15.4326 25.3225 15.0947 24.9057 15.0947H4.5283C2.86114 15.0947 1.50943 13.743 1.50943 12.0758V6.03807Z" fill="white"/>
<path d="M22.321 19.7599C22.1194 19.618 21.8607 19.5841 21.6297 19.6692L13.7051 22.5506C13.5397 22.6111 13.365 22.642 13.1888 22.642H7.17063C4.6898 22.6523 2.60695 24.5133 2.31877 26.9776C2.03023 29.4415 3.627 31.7333 6.03856 32.3159V35.8496C6.03856 37.3085 7.22112 38.4911 8.68007 38.4911C10.139 38.4911 11.3216 37.3085 11.3216 35.8496V35.4722H11.6356C13.1255 35.4707 14.3342 34.2657 14.3404 32.7754L21.6304 35.4261C21.7126 35.4567 21.7999 35.4722 21.8876 35.4722C22.3044 35.4722 22.6423 35.1343 22.6423 34.7175V31.4105L23.8938 30.7847C24.9769 30.2434 25.6612 29.136 25.6612 27.925C25.6612 26.7141 24.9769 25.6067 23.8938 25.0654L22.6423 24.4396V20.3779C22.6423 20.1317 22.5222 19.901 22.321 19.7599ZM3.77441 27.5477C3.77662 25.6727 5.29563 24.1537 7.17063 24.1515H8.30271V30.9439H7.17063C5.29563 30.9417 3.77662 29.4227 3.77441 27.5477ZM9.81214 35.8496C9.81214 36.4749 9.30544 36.9816 8.68007 36.9816C8.0547 36.9816 7.54799 36.4749 7.54799 35.8496V32.4533H9.81214V35.8496ZM12.831 32.7673C12.8303 33.4273 12.2956 33.962 11.6356 33.9628H11.3216V32.4533H12.831V32.7673ZM21.1329 24.9062V33.6396L14.2174 31.1252C13.8872 31.0051 13.5386 30.9439 13.1874 30.9439H9.81214V24.1515H13.1874C13.5389 24.1515 13.8879 24.0899 14.2181 23.9694L21.1329 21.4558V24.9062ZM23.2191 26.4156C23.7906 26.7016 24.1518 27.2857 24.1518 27.925C24.1518 28.5644 23.7906 29.1485 23.2191 29.4345L22.6423 29.7227V26.1274L23.2191 26.4156Z" fill="white"/>
</svg>
