<svg width="40" height="40" viewBox="0 0 40 40" fill="none" xmlns="http://www.w3.org/2000/svg">
<path d="M35.3868 21.1376H18.8653V4.62305C18.8653 4.19156 18.5155 3.8418 18.0841 3.8418C13.2537 3.8418 8.71242 5.72211 5.2968 9.13633C1.88109 12.5506 0 17.0902 0 21.9188C0 26.7475 1.88109 31.2871 5.2968 34.7014C8.71242 38.1156 13.2537 39.9959 18.0841 39.9959C22.9145 39.9959 27.4557 38.1156 30.8713 34.7014C34.287 31.2871 36.168 26.7475 36.168 21.9189C36.168 21.4874 35.8183 21.1376 35.3868 21.1376ZM1.5625 21.9188C1.5625 13.0745 8.55414 5.83164 17.3028 5.4225V38.4152C8.55414 38.006 1.5625 30.7632 1.5625 21.9188ZM18.8653 38.4152V36.2071L27.288 27.7811C27.593 27.4759 27.5929 26.9813 27.2878 26.6763C26.9826 26.3711 26.488 26.3713 26.183 26.6764L18.8653 33.997V22.7001H24.5796L20.5509 26.7304C20.2459 27.0355 20.2459 27.5302 20.5511 27.8352C20.7037 27.9877 20.9035 28.064 21.1034 28.064C21.3034 28.064 21.5034 27.9877 21.656 27.8351L26.7889 22.7001H34.5873C34.5675 23.1229 34.5316 23.5416 34.4805 23.9556L25.2741 33.1658C24.969 33.4709 24.9691 33.9656 25.2742 34.2707C25.4268 34.4232 25.6266 34.4994 25.8266 34.4994C26.0266 34.4994 26.2266 34.423 26.3791 34.2705L33.8791 26.7674C31.8752 33.277 25.9458 38.0841 18.8653 38.4152Z" fill="white"/>
<path d="M34.9451 5.05656C31.6856 1.79836 27.3518 0.00390625 22.7422 0.00390625C22.3107 0.00390625 21.9609 0.353672 21.9609 0.785156V17.255C21.9609 17.6865 22.3107 18.0363 22.7422 18.0363H39.2186C39.6501 18.0363 39.9998 17.6865 39.9998 17.255C39.9998 12.647 38.2047 8.31484 34.9451 5.05656ZM23.5234 16.4738V1.58563C31.5573 1.98125 38.0223 8.4432 38.4181 16.4738H23.5234Z" fill="white"/>
</svg>
