<svg width="40" height="40" viewBox="0 0 40 40" fill="none" xmlns="http://www.w3.org/2000/svg">
<path d="M36.6667 0H12.6667C10.8266 0.00220408 9.33554 1.4933 9.33333 3.33333V14.6667H3.33333C1.4933 14.6689 0.00220408 16.16 0 18V36.6667C0.00220408 38.5067 1.4933 39.9978 3.33333 40H12.6667C14.5067 39.9978 15.9978 38.5067 16 36.6667V24H20.6667V25.428C19.4929 25.7311 18.6712 26.7877 18.6667 28V28.6667C18.6667 29.0349 18.9651 29.3333 19.3333 29.3333H30C30.3682 29.3333 30.6667 29.0349 30.6667 28.6667V28C30.6621 26.7877 29.8405 25.7311 28.6667 25.428V24H36.6667C38.5067 23.9978 39.9978 22.5067 40 20.6667V3.33333C39.9978 1.4933 38.5067 0.00220408 36.6667 0ZM11.3333 16L10.5333 17.0667C10.4074 17.2345 10.2098 17.3333 10 17.3333H6C5.79016 17.3333 5.59257 17.2345 5.46667 17.0667L4.66667 16H11.3333ZM1.33333 18C1.33685 17.0178 2.05303 16.1836 3.02333 16.0313L4.4 17.8667C4.77867 18.3691 5.37083 18.6652 6 18.6667H10C10.6293 18.6656 11.2216 18.3695 11.6 17.8667L12.9773 16.0313C13.9474 16.1839 14.6632 17.018 14.6667 18V36.4C14.6667 37.5046 13.7712 38.4 12.6667 38.4H3.33333C2.22876 38.4 1.33333 37.5046 1.33333 36.4V18ZM29.3333 28H20C20 27.2636 20.597 26.6667 21.3333 26.6667H28C28.7364 26.6667 29.3333 27.2636 29.3333 28ZM27.3333 25.3333H22V24H27.3333V25.3333ZM38.6667 20.6667C38.6667 21.7712 37.7712 22.6667 36.6667 22.6667H16V18C15.9978 16.16 14.5067 14.6689 12.6667 14.6667H10.6667V3.33333C10.6667 2.22876 11.5621 1.33333 12.6667 1.33333H36.6667C37.7712 1.33333 38.6667 2.22876 38.6667 3.33333V20.6667Z" fill="white"/>
<rect x="14.9023" y="9.07617" width="9.18037" height="1.29859" rx="0.649293" transform="rotate(-25.6088 14.9023 9.07617)" fill="white"/>
<rect x="21.291" y="11.8887" width="13.9264" height="1.29859" rx="0.649293" transform="rotate(-25.6088 21.291 11.8887)" fill="white"/>
<rect x="19.3223" y="18.3066" width="9.27909" height="1.29859" rx="0.649293" transform="rotate(-25.6088 19.3223 18.3066)" fill="white"/>
</svg>
