<svg id="Layer_1" data-name="Layer 1" xmlns="http://www.w3.org/2000/svg" viewBox="0 0 39.98 34.17"><defs><style>.cls-1{fill:#073cbd;}</style></defs><path class="cls-1" d="M39.89,5.86,36.82.36a.7.7,0,0,0-1-.27l-5.5,3.07a.7.7,0,0,0,.68,1.23l4-2.24c-4.2,13.45-10.81,17.69-15.9,18A12.27,12.27,0,0,0,19.72,18c.43-2.68-.24-5.07-1.75-6.41s-3.84-1.44-6.15.11a4.48,4.48,0,0,0-2.07,2.94,4.51,4.51,0,0,0,.76,3.22A9.16,9.16,0,0,0,17,21.5C14.8,25.52,9.82,30,.5,32.8a.7.7,0,1,0,.4,1.34c10-3.05,15.35-7.95,17.62-12.54,6,0,13.4-4.72,17.89-19.11l2.26,4.05a.7.7,0,1,0,1.22-.68ZM11.68,17.06a3.09,3.09,0,0,1-.55-2.21,3.14,3.14,0,0,1,1.48-2c1.91-1.29,3.46-1.08,4.43-.22s1.68,2.76,1.3,5.14a10.72,10.72,0,0,1-.71,2.42A7.91,7.91,0,0,1,11.68,17.06Z"/></svg>