<svg width="40" height="40" viewBox="0 0 40 40" fill="none" xmlns="http://www.w3.org/2000/svg">
<path d="M30.5908 0.0175781L22.3865 1.10273L0 23.4898L16.4954 39.984L38.8819 17.5981L40 9.42734L30.5908 0.0175781ZM37.3071 16.8162L16.4954 37.628L2.35656 23.4898L23.1653 2.68055L29.9927 1.77727L38.2373 10.0207L37.3071 16.8162Z" fill="white"/>
<path d="M30.6055 6.92188C29.2236 6.92125 28.1055 8.03695 28.1055 9.41211C28.1055 10.7878 29.2236 11.903 30.6042 11.903C31.9848 11.903 33.1042 10.7879 33.1042 9.41273C33.1042 8.03703 31.9848 6.92188 30.6055 6.92188ZM31.1962 9.9932C31.1047 10.0841 30.9057 10.2367 30.6042 10.2367C30.3027 10.2367 30.1049 10.0841 30.0134 9.9932C29.9231 9.90352 29.7705 9.7082 29.7705 9.41211C29.7705 9.11664 29.9231 8.92133 30.0134 8.83102C30.105 8.7407 30.3027 8.58813 30.6042 8.58813H30.6055C30.8277 8.58813 31.0376 8.67422 31.1962 8.83164C31.2866 8.92133 31.438 9.11664 31.438 9.41273C31.438 9.70813 31.2866 9.90344 31.1962 9.9932Z" fill="white"/>
<path d="M17.0089 25.227C16.1575 24.3762 15.2267 24.6044 14.0604 25.2563C12.7579 25.9863 12.1787 26.4941 11.735 26.0497C11.37 25.686 11.4628 25.1635 11.9778 24.6483C12.5723 24.0539 13.1662 23.9891 13.7027 24.4408L14.7617 23.3813C13.6026 22.2656 12.2501 22.644 11.1764 23.7182C9.9887 24.9059 9.81722 26.2792 10.74 27.2021C11.7776 28.2397 12.7798 27.6537 13.8461 27.0605C15.1986 26.3086 15.6137 26.0364 16.0141 26.4379C16.4364 26.8591 16.3364 27.4755 15.7492 28.0615C15.0692 28.7414 14.3466 28.9208 13.6385 28.2543L12.5289 29.364C13.6953 30.5016 15.1767 30.3515 16.5578 28.9697C17.5954 27.9321 18.2113 26.4306 17.0089 25.227Z" fill="white"/>
<path d="M22.6131 20.8128L19.8507 23.5752L18.5982 22.3228L21.0885 19.8326L20.2084 18.9518L17.7181 21.4427L16.6091 20.333L19.3209 17.6213L18.4054 16.7051L14.584 20.5265L19.6791 25.6211L23.5506 21.7503L22.6131 20.8128Z" fill="white"/>
<path d="M26.9015 13.3184C25.306 11.7223 23.2162 11.6509 21.7269 13.1395C20.2029 14.6636 20.2603 16.7248 21.8783 18.3422C23.4738 19.9377 25.549 19.995 27.059 18.485C28.5544 16.9896 28.4896 14.9071 26.9015 13.3184ZM26.1434 17.5548C25.2694 18.4136 24.0816 18.2848 22.9867 17.1898C21.9272 16.1309 21.7855 14.9145 22.629 14.0697C23.4799 13.2183 24.6762 13.3544 25.7492 14.4273C26.8368 15.5156 26.9869 16.7102 26.1434 17.5548Z" fill="white"/>
</svg>
