<svg id="Layer_1" data-name="Layer 1" xmlns="http://www.w3.org/2000/svg" viewBox="0 0 38 38"><path d="M13.73,18.53a12.37,12.37,0,0,0,5.79,5.77,1.13,1.13,0,0,0,.6.11,1.09,1.09,0,0,0,.57-.2l3.71-2.48a1.25,1.25,0,0,1,.55-.19,1.15,1.15,0,0,1,.58.09l6.95,3a1.19,1.19,0,0,1,.71,1.24,7.13,7.13,0,0,1-7.06,6.22A20.2,20.2,0,0,1,5.94,11.88a7.11,7.11,0,0,1,6.22-7.07,1.19,1.19,0,0,1,1.23.71l3,7a1.21,1.21,0,0,1,.1.56,1.17,1.17,0,0,1-.19.55L13.8,17.37a1.16,1.16,0,0,0-.18.57A1.11,1.11,0,0,0,13.73,18.53Z"/></svg>