<svg id="Layer_1" data-name="Layer 1" xmlns="http://www.w3.org/2000/svg" viewBox="0 0 38 38"><path d="M11.67,34.5A8.17,8.17,0,0,1,5.89,20.56l4.89-4.89a8.17,8.17,0,0,1,11.55,0,1.25,1.25,0,1,1-1.77,1.77,5.66,5.66,0,0,0-8,0L7.66,22.33a5.66,5.66,0,1,0,8,8l2.45-2.44a1.24,1.24,0,0,1,1.76,1.76l-2.44,2.45A8.11,8.11,0,0,1,11.67,34.5Z"/><path d="M21.45,24.72a8.15,8.15,0,0,1-5.78-2.39,1.25,1.25,0,0,1,1.77-1.77,5.66,5.66,0,0,0,8,0l4.89-4.89a5.66,5.66,0,1,0-8-8L19.89,10.1a1.25,1.25,0,0,1-1.77-1.76l2.44-2.45A8.17,8.17,0,0,1,32.11,17.44l-4.89,4.89A8.11,8.11,0,0,1,21.45,24.72Z"/></svg>