<svg id="Layer_1" data-name="Layer 1" xmlns="http://www.w3.org/2000/svg" viewBox="0 0 31.5 31.5"><path d="M18.32,15.66,31.08,2.91A1.74,1.74,0,0,0,31.5,1.7,1.75,1.75,0,0,0,29.82,0a1.74,1.74,0,0,0-1.21.42L15.85,13.2,3.1.42A1.74,1.74,0,0,0,1.89,0,1.75,1.75,0,0,0,.21,1.68,1.74,1.74,0,0,0,.63,2.89L13.39,15.66.61,28.42A1.89,1.89,0,0,0,.17,29a1.8,1.8,0,0,0-.17.69,1.74,1.74,0,0,0,.12.71,1.83,1.83,0,0,0,.39.6,1.83,1.83,0,0,0,.6.39,1.74,1.74,0,0,0,.71.12,1.8,1.8,0,0,0,.69-.17,1.89,1.89,0,0,0,.57-.44L15.85,18.13,28.61,30.89a1.79,1.79,0,0,0,1.21.42A1.77,1.77,0,0,0,31,30.8a1.79,1.79,0,0,0,.51-1.17,1.74,1.74,0,0,0-.42-1.21Z"/></svg>