<svg id="Layer_1" data-name="Layer 1" xmlns="http://www.w3.org/2000/svg" viewBox="0 0 42.25 27.87"><path d="M21.13,27.87c-14.86,0-21-13.39-21-13.52a1,1,0,0,1,0-.82C.15,13.4,6.27,0,21.13,0s21,13.4,21,13.53a1,1,0,0,1,0,.82C42.1,14.48,36,27.87,21.13,27.87Zm-19-13.93c1.1,2.17,6.73,11.93,19,11.93s17.91-9.76,19-11.93C39,11.77,33.41,2,21.13,2S3.21,11.77,2.11,13.94Z"/><path d="M21.13,22.13a8.19,8.19,0,1,1,8.18-8.19A8.2,8.2,0,0,1,21.13,22.13Zm0-14.38a6.19,6.19,0,1,0,6.18,6.19A6.19,6.19,0,0,0,21.13,7.75Z"/></svg>