<svg id="Layer_1" data-name="Layer 1" xmlns="http://www.w3.org/2000/svg" viewBox="0 0 18.33 18.33"><defs><style>.cls-1{fill-rule:evenodd;}</style></defs><path class="cls-1" d="M5.39.06C6.37,0,6.68,0,9.17,0S12,0,12.94.06a6.79,6.79,0,0,1,2.23.42,4.39,4.39,0,0,1,1.62,1.06,4.47,4.47,0,0,1,1.06,1.62,6.82,6.82,0,0,1,.43,2.23c0,1,0,1.29,0,3.78s0,2.8,0,3.78a6.75,6.75,0,0,1-.43,2.22,4.66,4.66,0,0,1-2.68,2.68,6.75,6.75,0,0,1-2.22.43c-1,0-1.29,0-3.78,0s-2.8,0-3.78,0a6.82,6.82,0,0,1-2.23-.43A4.58,4.58,0,0,1,1.54,16.8,4.51,4.51,0,0,1,.48,15.17,6.78,6.78,0,0,1,.06,13C0,12,0,11.66,0,9.17S0,6.36.06,5.39A6.85,6.85,0,0,1,.48,3.16,4.47,4.47,0,0,1,1.54,1.54,4.47,4.47,0,0,1,3.16.48,6.85,6.85,0,0,1,5.39.06Zm7.48,1.65c-1-.05-1.26-.06-3.7-.06s-2.74,0-3.71.06A5.23,5.23,0,0,0,3.76,2a2.87,2.87,0,0,0-1,.69,2.75,2.75,0,0,0-.69,1,5.23,5.23,0,0,0-.31,1.7c-.05,1-.06,1.26-.06,3.71s0,2.73.06,3.7A5.17,5.17,0,0,0,2,14.57a2.86,2.86,0,0,0,.69,1.06,2.72,2.72,0,0,0,1,.68,4.9,4.9,0,0,0,1.7.32c1,0,1.26.05,3.71.05s2.73,0,3.7-.05a4.9,4.9,0,0,0,1.7-.32,2.76,2.76,0,0,0,1.06-.68,2.84,2.84,0,0,0,.68-1.06,4.84,4.84,0,0,0,.32-1.7c0-1,.05-1.26.05-3.7s0-2.74-.05-3.71a4.9,4.9,0,0,0-.32-1.7,2.72,2.72,0,0,0-.68-1A2.86,2.86,0,0,0,14.57,2,5.23,5.23,0,0,0,12.87,1.71ZM8,12a3,3,0,0,0,3.71-1.12,3,3,0,0,0,.5-2,3,3,0,0,0-2-2.58,3.17,3.17,0,0,0-1.33-.17,3.22,3.22,0,0,0-1.28.42,3.3,3.3,0,0,0-1,.93,3.07,3.07,0,0,0-.48,1.25,3.14,3.14,0,0,0,.1,1.33,3,3,0,0,0,.66,1.17A2.93,2.93,0,0,0,8,12ZM5.84,5.84a4.65,4.65,0,0,1,1.52-1,4.91,4.91,0,0,1,1.81-.36A4.69,4.69,0,0,1,12.5,5.84a4.62,4.62,0,0,1,1,1.52,4.71,4.71,0,0,1,.36,1.81,4.63,4.63,0,0,1-.36,1.8,4.7,4.7,0,0,1-4.35,2.91,4.7,4.7,0,0,1-3.33-8Zm9.08-.68a1.18,1.18,0,0,0,.26-.37,1,1,0,0,0,.09-.43,1.06,1.06,0,0,0-.08-.43A1,1,0,0,0,15,3.56a1.15,1.15,0,0,0-.37-.25,1.32,1.32,0,0,0-.44-.08,1.08,1.08,0,0,0-.43.1,1,1,0,0,0-.36.25,1.13,1.13,0,0,0-.31.78,1.15,1.15,0,0,0,.33.77,1.08,1.08,0,0,0,.77.33A1.12,1.12,0,0,0,14.92,5.16Z"/></svg>