<svg id="Layer_1" data-name="Layer 1" xmlns="http://www.w3.org/2000/svg" viewBox="0 0 23.03 12.25"><path d="M.89,5.25H20.25L17,1.44A.87.87,0,0,1,17.15.2.89.89,0,0,1,17.8,0a.94.94,0,0,1,.6.32l4.42,5.25a.57.57,0,0,1,.08.13s0,.07.07.11a.87.87,0,0,1,.06.32.85.85,0,0,1-.06.31s0,.07-.07.11a1,1,0,0,1-.08.14L18.4,11.94a1.19,1.19,0,0,1-.31.23,1,1,0,0,1-.38.08.89.89,0,0,1-.56-.2.73.73,0,0,1-.22-.27.75.75,0,0,1-.1-.32.78.78,0,0,1,0-.34.79.79,0,0,1,.16-.3L20.25,7H.89a.88.88,0,0,1-.63-.26.86.86,0,0,1,0-1.23A.88.88,0,0,1,.89,5.25Z"/></svg>