<svg id="Layer_1" data-name="Layer 1" xmlns="http://www.w3.org/2000/svg" viewBox="0 0 48 64"><defs><style>.cls-1{fill:#073cbd;}</style></defs><path class="cls-1" d="M8,0A8,8,0,0,0,0,8V56a8,8,0,0,0,8,8H40a8,8,0,0,0,8-8V8a8,8,0,0,0-8-8ZM8,4H40a4,4,0,0,1,4,4V56a4,4,0,0,1-4,4H8a4,4,0,0,1-4-4V8A4,4,0,0,1,8,4Z"/><path class="cls-1" d="M10.41,48.35a3.23,3.23,0,0,1-1.75-1.68A4.29,4.29,0,0,1,9,42.26a10.6,10.6,0,0,1,3.59-3.15,30.94,30.94,0,0,1,5.93-2.58,77.27,77.27,0,0,0,4.24-8.91A29.14,29.14,0,0,1,21,22.44a11.19,11.19,0,0,1-.18-4.54,4.31,4.31,0,0,1,2.6-3.29,4.18,4.18,0,0,1,2.41-.31,2.8,2.8,0,0,1,1.12.52,2.76,2.76,0,0,1,.79.94,4.88,4.88,0,0,1,.5,2.15,12.68,12.68,0,0,1-.18,2.46A39.66,39.66,0,0,1,26,27.54a43.3,43.3,0,0,0,3.92,6.75,22.63,22.63,0,0,1,5.33.2,6.36,6.36,0,0,1,3.84,1.86,3.38,3.38,0,0,1,.8,2.07,4.65,4.65,0,0,1-.55,2.25,4.18,4.18,0,0,1-1.42,1.67,3.47,3.47,0,0,1-2,.55,6.86,6.86,0,0,1-3.73-1.67,23,23,0,0,1-3.64-3.8,47.16,47.16,0,0,0-8,1.62,45.68,45.68,0,0,1-4.08,6,10.83,10.83,0,0,1-3.71,3.15A3.21,3.21,0,0,1,10.41,48.35Zm5.52-7.61c-.67.31-1.28.63-1.84,1a7.92,7.92,0,0,0-2.59,2.18,1.34,1.34,0,0,0-.16,1.45.55.55,0,0,0,.11.17l.14,0a8.18,8.18,0,0,0,2.54-2.29Q15.09,42,15.93,40.74Zm6.56-5.32c1.33-.31,2.68-.57,4-.77-.73-1.11-1.41-2.26-2-3.43q-.94,2.13-2,4.2Zm9.78,1.8A16,16,0,0,0,34,38.86a4,4,0,0,0,2,1,.45.45,0,0,0,.28-.06,1.24,1.24,0,0,0,.38-.5,1.91,1.91,0,0,0,.24-.8.36.36,0,0,0-.11-.25,3.66,3.66,0,0,0-2.07-.84,14.39,14.39,0,0,0-2.45-.21Zm-8-14a25.32,25.32,0,0,0,.8-3.31A8.94,8.94,0,0,0,25.26,18a2.33,2.33,0,0,0-.12-.79,1.67,1.67,0,0,0-.58.16,1.34,1.34,0,0,0-.79,1.13A8.27,8.27,0,0,0,24,21.82a14.13,14.13,0,0,0,.36,1.38Z"/></svg>