<svg id="Layer_1" data-name="Layer 1" xmlns="http://www.w3.org/2000/svg" viewBox="0 0 21 21"><path d="M7.45,10.05a6.73,6.73,0,0,0,3.14,3.14.87.87,0,0,0,.32.06.72.72,0,0,0,.32-.11l2-1.35a.64.64,0,0,1,.3-.11.66.66,0,0,1,.31.06l3.77,1.61a.68.68,0,0,1,.31.27A.62.62,0,0,1,18,14a3.88,3.88,0,0,1-3.84,3.38,11,11,0,0,1-10.95-11,3.87,3.87,0,0,1,1-2.55A3.92,3.92,0,0,1,6.6,2.61.6.6,0,0,1,7,2.69.58.58,0,0,1,7.26,3L8.88,6.77a.67.67,0,0,1,0,.31.54.54,0,0,1-.1.3l-1.34,2a.6.6,0,0,0-.1.31A.59.59,0,0,0,7.45,10.05Z"/></svg>