<svg id="Layer_1" data-name="Layer 1" xmlns="http://www.w3.org/2000/svg" viewBox="0 0 45.95 42.35"><defs><style>.cls-1{fill-rule:evenodd;}</style></defs><path class="cls-1" d="M4.92,26.09a4.92,4.92,0,1,1,0-9.83H31.29L21.92,6.89a4,4,0,1,1,5.71-5.71L44.08,17.64l.13.12.56.56a4,4,0,0,1,0,5.71l-.54.53-.17.17L27.63,41.17a4,4,0,0,1-5.71-5.71l9.37-9.37Zm31.2-2L23.33,36.87a2,2,0,1,0,2.88,2.88L42.66,23.3a1.59,1.59,0,0,0,.13-.13l.56-.56a2,2,0,0,0,0-2.88l-.57-.57-.1-.09L26.21,2.6a2,2,0,0,0-2.88,2.88L36.12,18.26H4.92a2.92,2.92,0,1,0,0,5.83Z"/></svg>