<svg id="Layer_1" data-name="Layer 1" xmlns="http://www.w3.org/2000/svg" viewBox="0 0 51 51"><defs><style>.cls-1{fill:#fff;}</style></defs><path class="cls-1" d="M50.55,20.78a1.59,1.59,0,0,0-3-.36A3.17,3.17,0,0,1,41.59,20a1.6,1.6,0,0,0-1.89-1.09,6.19,6.19,0,0,1-1.45.18,6.38,6.38,0,0,1-6.37-6.37,6.19,6.19,0,0,1,.18-1.45A1.6,1.6,0,0,0,31,9.41a3.17,3.17,0,0,1-.39-5.94,1.6,1.6,0,0,0,.93-1.64A1.61,1.61,0,0,0,30.22.45,26,26,0,0,0,25.5,0,25.5,25.5,0,1,0,51,25.5,26,26,0,0,0,50.55,20.78ZM41.27,41.27A22.3,22.3,0,1,1,25.5,3.19c.29,0,.57,0,.85,0a6.27,6.27,0,0,0,2.4,8.65,8.29,8.29,0,0,0-.06.87,9.56,9.56,0,0,0,9.56,9.56,8.29,8.29,0,0,0,.87-.06,6.27,6.27,0,0,0,8.65,2.4c0,.28,0,.56,0,.85A22.24,22.24,0,0,1,41.27,41.27Z"/><path class="cls-1" d="M19.12,15.94a3.19,3.19,0,1,0-3.18-3.19A3.19,3.19,0,0,0,19.12,15.94Z"/><path class="cls-1" d="M12.75,28.69A3.19,3.19,0,1,0,9.56,25.5,3.19,3.19,0,0,0,12.75,28.69Z"/><path class="cls-1" d="M28.69,41.44a3.19,3.19,0,1,0-3.19-3.19A3.19,3.19,0,0,0,28.69,41.44Z"/><path class="cls-1" d="M27.09,28.69a1.6,1.6,0,1,0,0-3.19,1.6,1.6,0,0,0,0,3.19Z"/><path class="cls-1" d="M39.84,35.06a1.59,1.59,0,1,0-1.59-1.59A1.6,1.6,0,0,0,39.84,35.06Z"/><path class="cls-1" d="M17.53,38.25a1.6,1.6,0,1,0-1.59-1.59A1.59,1.59,0,0,0,17.53,38.25Z"/></svg>