<svg id="Layer_1" data-name="Layer 1" xmlns="http://www.w3.org/2000/svg" viewBox="0 0 134.42 122.89">
    <defs>
        <style>
            .cls-1 {
                fill-rule: evenodd;
            }
        </style>
    </defs>
    <path class="cls-1"
        d="M132.51,56.83,130.68,55l-.32-.32L77.59,1.91a6.52,6.52,0,1,0-9.22,9.23l41,41H9.34a9.35,9.35,0,0,0,0,18.69h100l-41,41A6.52,6.52,0,1,0,77.59,121l52.73-52.73c.14-.13.27-.26.4-.4l1.79-1.79A6.52,6.52,0,0,0,132.51,56.83Zm-2.12,7.11-1.8,1.79-.06.07a2.23,2.23,0,0,1-.27.26l-.06.06L75.47,118.86a3.52,3.52,0,1,1-5-5l41-41a3,3,0,0,0-2.12-5.12H9.34a6.35,6.35,0,0,1,0-12.69h100A3,3,0,0,0,111.45,50l-41-41a3.52,3.52,0,1,1,5-5L128.24,56.8l0,0,0,0a2.28,2.28,0,0,1,.22.22l.05,0L130.39,59A3.52,3.52,0,0,1,130.39,63.94Z" />
</svg>