<svg id="Layer_1" data-name="Layer 1" xmlns="http://www.w3.org/2000/svg" viewBox="0 0 20 20"><path d="M10,11.58a3.25,3.25,0,1,1,3.25-3.25A3.26,3.26,0,0,1,10,11.58Zm0-5a1.75,1.75,0,1,0,1.75,1.75A1.76,1.76,0,0,0,10,6.58Z"/><path d="M10,19.08a.75.75,0,0,1-.57-.26L4,12.57A6.08,6.08,0,0,1,2.58,8.33,7.42,7.42,0,0,1,15.25,3.09a7.36,7.36,0,0,1,2.17,5.24A6.08,6.08,0,0,1,16,12.55l-5.43,6.27A.75.75,0,0,1,10,19.08ZM10,2.42A5.92,5.92,0,0,0,4.08,8.33a4.61,4.61,0,0,0,1.09,3.28L10,17.19l4.85-5.6a4.61,4.61,0,0,0,1.07-3.26A5.92,5.92,0,0,0,10,2.42Z"/></svg>