<svg id="Layer_1" data-name="Layer 1" xmlns="http://www.w3.org/2000/svg" viewBox="0 0 49 46"><defs><style>.cls-1{fill:#073cbd;fill-rule:evenodd;}</style></defs><path class="cls-1" d="M3.61,27.93A20.87,20.87,0,0,1,0,29a20.87,20.87,0,0,1,3.61,1.07A21.77,21.77,0,0,1,15.93,42.39,21.13,21.13,0,0,1,17,46a21.13,21.13,0,0,1,1.07-3.61A21.77,21.77,0,0,1,30.39,30.07,21.13,21.13,0,0,1,34,29a21.13,21.13,0,0,1-3.61-1.07A21.77,21.77,0,0,1,18.07,15.61,21.13,21.13,0,0,1,17,12a21.13,21.13,0,0,1-1.07,3.61A21.77,21.77,0,0,1,3.61,27.93ZM6.14,29A23.8,23.8,0,0,1,17,39.86,23.8,23.8,0,0,1,27.86,29,23.8,23.8,0,0,1,17,18.14,23.8,23.8,0,0,1,6.14,29Z"/><path class="cls-1" d="M38,0l-.07.38v0a14.23,14.23,0,0,1-1,3.12,14.11,14.11,0,0,1-6.71,6.88A14.55,14.55,0,0,1,27,11.5a14.55,14.55,0,0,1,3.2,1.09,14.23,14.23,0,0,1,7.72,10v0L38,23l.07-.38v0a14.23,14.23,0,0,1,7.72-10A14.55,14.55,0,0,1,49,11.5a14.55,14.55,0,0,1-3.2-1.09,14.11,14.11,0,0,1-6.71-6.88,14.23,14.23,0,0,1-1-3.12v0Zm0,5.79a16.2,16.2,0,0,1-5.63,5.71A16.2,16.2,0,0,1,38,17.21a16.2,16.2,0,0,1,5.63-5.71A16.2,16.2,0,0,1,38,5.79Z"/></svg>