<svg id="Layer_1" data-name="Layer 1" xmlns="http://www.w3.org/2000/svg" viewBox="0 0 146.35 79.49"><defs><style>.cls-1{fill:#073cbd;opacity:0.2;isolation:isolate;}</style></defs><path class="cls-1" d="M132.72,30.17l6.62-.55a1,1,0,0,0-.16-2l-9,.74a1,1,0,0,0-.92,1.08l.74,9a1,1,0,1,0,2-.17l-.53-6.5c8.92,8.11,13.22,16.38,12.84,23.51-.41,7.47-6,13.9-16.72,17.95s-25.52,5.3-42,3.41a151.05,151.05,0,0,1-47.8-13.83C23.33,55.73,12.33,47,6.54,38.25S.61,21.55,5.4,15.3c4.92-6.43,15.07-11,29.15-12.66s30.74-.14,47.3,4.24a1,1,0,1,0,.51-1.94C65.61.52,48.63-1,34.32.65S9.22,7,3.81,14.08s-5,16.09,1.06,25.28S22.28,57.44,37,64.59a153.16,153.16,0,0,0,48.45,14c16.64,1.91,31.81.67,42.91-3.53s17.53-11.13,18-19.71C146.76,47.34,141.92,38.5,132.72,30.17Z"/></svg>