<svg id="Layer_1" data-name="Layer 1" xmlns="http://www.w3.org/2000/svg" viewBox="0 0 293 293"><defs><style>.cls-1{fill:#fff;fill-rule:evenodd;opacity:0.18;isolation:isolate;}</style></defs><path class="cls-1" d="M292.71,155.72c0-.34.05-.67.06-1q.23-4.08.23-8.22t-.23-8.22c0-.33,0-.66-.06-1l-.06-1a2,2,0,0,0-1.87,2.1c.14,2.68.22,5.39.22,8.11s-.08,5.43-.22,8.11a2,2,0,0,0,1.87,2.1Zm-1.44,13.36a2,2,0,0,0-2.29,1.64,144.86,144.86,0,0,1-3.59,15.8,2,2,0,0,0,1.35,2.47c.1-.32.19-.64.29-1s.19-.64.28-1a146,146,0,0,0,3.64-16c.06-.33.11-.66.16-1S291.22,169.41,291.27,169.08Zm-8.63,31.65a2,2,0,0,0-2.6,1.08,143.27,143.27,0,0,1-7.05,14.6,2,2,0,0,0,.77,2.71l.5-.87.48-.87a146.06,146.06,0,0,0,7.14-14.8c.13-.31.26-.62.38-.93S282.51,201,282.64,200.73Zm-15.5,28.91a2,2,0,0,0-2.78.48,146.92,146.92,0,0,1-10.11,12.67,2,2,0,0,0,.15,2.81l.67-.74.67-.74A147.46,147.46,0,0,0,266,231.28c.19-.27.39-.54.58-.82ZM245.6,254.4a2,2,0,0,0-2.81-.15,146.92,146.92,0,0,1-12.67,10.11,2,2,0,0,0-.48,2.78l.82-.57.82-.58a147.46,147.46,0,0,0,12.84-10.25l.74-.67Zm-26.48,19.36a2,2,0,0,0-2.71-.77,143.27,143.27,0,0,1-14.6,7.05,2,2,0,0,0-1.08,2.6l.92-.38.93-.38a146.06,146.06,0,0,0,14.8-7.14l.87-.48Zm-30.13,13a2,2,0,0,0-2.47-1.35,144.86,144.86,0,0,1-15.8,3.59,2,2,0,0,0-1.64,2.29l1-.16,1-.16a146,146,0,0,0,16-3.64l1-.28Zm-32.28,5.91a2,2,0,0,0-2.1-1.87c-2.68.14-5.39.22-8.11.22s-5.43-.08-8.11-.22a2,2,0,0,0-2.1,1.87l1,.06,1,.06q4.08.23,8.22.23t8.22-.23l1-.06Zm-32.79-1.38a2,2,0,0,0-1.64-2.29,144.86,144.86,0,0,1-15.8-3.59,2,2,0,0,0-2.47,1.35l1,.29,1,.28A146,146,0,0,0,122,291l1,.16Zm-31.65-8.63a2,2,0,0,0-1.08-2.6A143.27,143.27,0,0,1,76.59,273a2,2,0,0,0-2.71.77l.87.5.87.48a146.06,146.06,0,0,0,14.8,7.14l.93.38Zm-28.91-15.5a2,2,0,0,0-.48-2.78,146.92,146.92,0,0,1-12.67-10.11,2,2,0,0,0-2.81.15l.74.67.74.67A147.46,147.46,0,0,0,61.72,266l.82.58ZM38.61,245.6a2,2,0,0,0,.14-2.81,146.92,146.92,0,0,1-10.11-12.67,2,2,0,0,0-2.78-.48l.57.82c.19.28.39.55.58.82a147.46,147.46,0,0,0,10.25,12.84l.67.74C38.15,245.11,38.38,245.36,38.61,245.6ZM19.24,219.12a2,2,0,0,0,.77-2.71,143.27,143.27,0,0,1-7-14.6,2,2,0,0,0-2.6-1.08c.13.31.25.62.38.92s.25.62.38.93a144,144,0,0,0,7.14,14.8l.48.87ZM6.26,189a2,2,0,0,0,1.35-2.47A144.86,144.86,0,0,1,4,170.72a2,2,0,0,0-2.29-1.64c.05.33.1.66.16,1s.1.65.16,1a146,146,0,0,0,3.64,16c.09.32.19.64.28,1S6.16,188.67,6.26,189ZM.35,156.71a2,2,0,0,0,1.87-2.1c-.14-2.68-.22-5.39-.22-8.11s.08-5.43.22-8.11a2,2,0,0,0-1.87-2.1l-.06,1c0,.34,0,.67-.06,1Q0,142.36,0,146.5t.23,8.22c0,.33,0,.66.06,1Zm1.38-32.79A2,2,0,0,0,4,122.28a144.86,144.86,0,0,1,3.59-15.8A2,2,0,0,0,6.26,104c-.1.32-.19.64-.29,1s-.19.64-.28,1a146,146,0,0,0-3.64,16c-.06.33-.11.66-.16,1S1.78,123.59,1.73,123.92Zm8.63-31.65A2,2,0,0,0,13,91.19,143.27,143.27,0,0,1,20,76.59a2,2,0,0,0-.77-2.71l-.5.87-.48.87a144,144,0,0,0-7.14,14.8c-.13.31-.26.62-.38.93Zm15.5-28.91a2,2,0,0,0,2.78-.48A146.92,146.92,0,0,1,38.75,50.21a2,2,0,0,0-.14-2.81c-.23.24-.46.49-.68.74l-.67.74A147.46,147.46,0,0,0,27,61.72c-.19.27-.39.54-.58.82ZM47.4,38.61a2,2,0,0,0,2.81.14A146.92,146.92,0,0,1,62.88,28.64a2,2,0,0,0,.48-2.78l-.82.57-.82.58A147.46,147.46,0,0,0,48.88,37.26l-.74.67ZM73.88,19.24a2,2,0,0,0,2.71.77,143.27,143.27,0,0,1,14.6-7,2,2,0,0,0,1.08-2.6l-.92.38-.93.38a144,144,0,0,0-14.8,7.14l-.87.48ZM104,6.26a2,2,0,0,0,2.47,1.35A144.86,144.86,0,0,1,122.28,4a2,2,0,0,0,1.64-2.29l-1,.16-1,.16a146,146,0,0,0-16,3.64L105,6ZM136.29.35a2,2,0,0,0,2.1,1.87c2.68-.14,5.39-.22,8.11-.22s5.43.08,8.11.22a2,2,0,0,0,2.1-1.87l-1-.06-1-.06Q150.64,0,146.5,0t-8.22.23l-1,.06Zm32.79,1.38A2,2,0,0,0,170.72,4a144.86,144.86,0,0,1,15.8,3.59A2,2,0,0,0,189,6.26L188,6l-1-.28a146,146,0,0,0-16-3.64l-1-.16Zm31.65,8.63a2,2,0,0,0,1.08,2.6A143.27,143.27,0,0,1,216.41,20a2,2,0,0,0,2.71-.77l-.87-.5-.87-.48a144,144,0,0,0-14.8-7.14l-.93-.38Zm28.91,15.5a2,2,0,0,0,.48,2.78,146.92,146.92,0,0,1,12.67,10.11,2,2,0,0,0,2.81-.14l-.74-.68-.74-.67A147.46,147.46,0,0,0,231.28,27l-.82-.58ZM254.4,47.4a2,2,0,0,0-.15,2.81,146.92,146.92,0,0,1,10.11,12.67,2,2,0,0,0,2.78.48l-.57-.82c-.19-.28-.39-.55-.58-.82a147.46,147.46,0,0,0-10.25-12.84l-.67-.74Zm19.36,26.48a2,2,0,0,0-.77,2.71A143.27,143.27,0,0,1,280,91.19a2,2,0,0,0,2.6,1.08l-.38-.92c-.12-.31-.25-.62-.38-.93a146.06,146.06,0,0,0-7.14-14.8l-.48-.87Zm13,30.13a2,2,0,0,0-1.35,2.47,144.86,144.86,0,0,1,3.59,15.8,2,2,0,0,0,2.29,1.64c0-.33-.1-.66-.16-1s-.1-.65-.16-1a146,146,0,0,0-3.64-16c-.09-.32-.19-.64-.28-1S286.84,104.33,286.74,104Z"/></svg>