<svg width="242" height="242" viewBox="0 0 242 242" fill="none" xmlns="http://www.w3.org/2000/svg">
<path d="M121 0.5C120.724 0.5 120.5 0.723858 120.5 1C120.5 1.27614 120.724 1.5 121 1.5V0.5ZM203.296 33.6647L203.639 33.3008L203.296 33.6647ZM240.789 113.876L241.288 113.846L240.789 113.876ZM135.224 240.154L135.283 240.651L135.224 240.154ZM2.90088 142.272L3.39296 142.184L2.90088 142.272ZM20.4599 55.4896L20.8788 55.7626L20.4599 55.4896ZM93.1812 4.63209C93.3251 4.39635 93.2505 4.08866 93.0148 3.94485L89.1732 1.60126C88.9375 1.45744 88.6298 1.53196 88.486 1.7677C88.3422 2.00344 88.4167 2.31112 88.6524 2.45494L92.0672 4.53813L89.984 7.95285C89.8401 8.18859 89.9147 8.49627 90.1504 8.64009C90.3861 8.7839 90.6938 8.70938 90.8376 8.47365L93.1812 4.63209ZM121 1.5C151.466 1.5 180.781 13.1357 202.953 34.0286L203.639 33.3008C181.281 12.2331 151.721 0.5 121 0.5V1.5ZM202.953 34.0286C225.125 54.9215 238.481 83.494 240.29 113.905L241.288 113.846C239.464 83.1801 225.997 54.3686 203.639 33.3008L202.953 34.0286ZM240.29 113.905C242.098 144.317 232.224 174.271 212.684 197.645L213.451 198.286C233.154 174.717 243.112 144.512 241.288 113.846L240.29 113.905ZM212.684 197.645C193.144 221.018 165.415 236.047 135.164 239.658L135.283 240.651C165.787 237.009 193.748 221.855 213.451 198.286L212.684 197.645ZM135.164 239.658C104.914 243.269 74.4265 235.19 49.934 217.072L49.3393 217.876C74.0367 236.145 104.779 244.292 135.283 240.651L135.164 239.658ZM49.934 217.072C25.4415 198.954 8.79347 172.166 3.39296 142.184L2.4088 142.361C7.8545 172.594 24.6418 199.607 49.3393 217.876L49.934 217.072ZM3.39296 142.184C-2.00755 112.201 4.24726 81.2875 20.8788 55.7626L20.041 55.2166C3.27024 80.9551 -3.0369 112.127 2.4088 142.361L3.39296 142.184ZM20.8788 55.7626C37.5104 30.2376 63.2628 12.0286 92.8721 4.85764L92.6367 3.88574C62.7797 11.1168 36.8118 29.4781 20.041 55.2166L20.8788 55.7626Z" fill="white"/>
</svg>
