<svg width="1320" height="791" viewBox="0 0 1320 791" fill="none" xmlns="http://www.w3.org/2000/svg">
<g clip-path="url(#clip0)">
<rect width="1320" height="942" fill="#073CBD"/>
<rect width="1320" height="942" fill="url(#paint0_radial)"/>
<g filter="url(#filter0_f)">
<path d="M739.336 244.147L744.786 246.656C1064.64 393.892 852.615 1084.92 513.699 1208.27C309.777 1282.48 154.468 1217.44 -12.0515 1081.92C-174.513 949.71 -391.006 927.759 -446.907 713.34C-467.232 635.381 -464.322 458.857 -419.084 371.513C-367.489 271.896 -154.292 287.673 -73.5391 351.575C177.365 550.124 103.69 120.775 292.904 113.589C443.364 107.874 602.395 181.096 739.336 244.147Z" fill="#2564FF"/>
</g>
<g opacity="0.7" filter="url(#filter1_f)">
<path d="M360.121 330.774C454.213 327.194 493.435 591.985 586.458 579.439C919.69 534.498 694.352 1025 485.185 1101.16C359.331 1146.98 263.486 1106.83 160.723 1023.18C60.4649 941.577 -54.0019 900.614 -88.4933 768.256C-101.034 720.132 -138.917 624.509 -110.995 570.59C-79.1496 509.094 96.1013 537.945 132.59 485.91C191.949 401.261 243.348 335.218 360.121 330.774Z" fill="#08F7F7"/>
</g>
</g>
<defs>
<filter id="filter0_f" x="-758.965" y="-186.726" width="1961.51" height="1726.11" filterUnits="userSpaceOnUse" color-interpolation-filters="sRGB">
<feFlood flood-opacity="0" result="BackgroundImageFix"/>
<feBlend mode="normal" in="SourceGraphic" in2="BackgroundImageFix" result="shape"/>
<feGaussianBlur stdDeviation="150" result="effect1_foregroundBlur"/>
</filter>
<filter id="filter1_f" x="-512.031" y="-60.262" width="1659.09" height="1571.63" filterUnits="userSpaceOnUse" color-interpolation-filters="sRGB">
<feFlood flood-opacity="0" result="BackgroundImageFix"/>
<feBlend mode="normal" in="SourceGraphic" in2="BackgroundImageFix" result="shape"/>
<feGaussianBlur stdDeviation="195.5" result="effect1_foregroundBlur"/>
</filter>
<radialGradient id="paint0_radial" cx="0" cy="0" r="1" gradientUnits="userSpaceOnUse" gradientTransform="translate(471.036 335.52) rotate(32.6808) scale(961.965 991.994)">
<stop stop-color="#040418" stop-opacity="0"/>
<stop offset="1" stop-color="#040418" stop-opacity="0.06"/>
</radialGradient>
<clipPath id="clip0">
<rect width="1320" height="791" fill="white"/>
</clipPath>
</defs>
</svg>
