<svg width="215" height="43" viewBox="0 0 215 43" fill="none" xmlns="http://www.w3.org/2000/svg">
<g clip-path="url(#clip0)">
<path d="M53.8418 27.0894L59.1911 15.0303H61.168L66.5174 27.0894H64.2691L63.0287 24.2036H57.2917L56.0513 27.0894H53.8418ZM58.0476 22.3307H62.234L60.1408 17.5338L58.0476 22.3307Z" fill="white"/>
<path d="M81.5188 27.4524L80.0652 26.172C78.9992 26.9173 77.7588 27.2995 76.3633 27.2995C74.5221 27.2995 73.0103 26.7071 71.828 25.5031C70.6458 24.2991 70.0449 22.8466 70.0449 21.1075C70.0449 19.4066 70.6458 17.9351 71.8474 16.7311C73.0491 15.5271 74.5608 14.9155 76.4021 14.9155C78.2433 14.9155 79.7551 15.508 80.9374 16.712C82.1197 17.916 82.7205 19.3684 82.7205 21.1075C82.7205 22.4835 82.3135 23.7066 81.4801 24.7769L82.8755 25.9426L81.5188 27.4524ZM76.4021 25.3693C77.1774 25.3693 77.8751 25.1782 78.4759 24.796L76.4021 23.0569L77.7782 21.5089L79.8714 23.3817C80.2784 22.7511 80.4916 22.0057 80.4916 21.1075C80.4916 19.9226 80.104 18.9097 79.3287 18.088C78.5534 17.2662 77.565 16.8457 76.3633 16.8457C75.181 16.8457 74.1926 17.2471 73.4173 18.0689C72.6421 18.8906 72.2544 19.9035 72.2544 21.0884C72.2544 22.2733 72.6421 23.2862 73.4173 24.108C74.212 24.9489 75.2004 25.3693 76.4021 25.3693Z" fill="white"/>
<path d="M93.5744 27.2806C91.9658 27.2806 90.706 26.822 89.795 25.9238C88.8841 25.0255 88.4189 23.726 88.4189 22.006V15.126H90.5509V21.9295C90.5509 23.0189 90.8223 23.8598 91.3649 24.4522C91.9076 25.0446 92.6635 25.3504 93.6132 25.3504C94.5823 25.3504 95.3188 25.0638 95.8615 24.4904C96.4042 23.9171 96.6755 23.0953 96.6755 22.006V15.126H98.8075V21.9104C98.8075 23.6495 98.3423 24.9873 97.412 25.9046C96.4817 26.822 95.2025 27.2806 93.5744 27.2806Z" fill="white"/>
<path d="M105.843 27.0895V15.126H107.975V27.0895H105.843Z" fill="white"/>
<path d="M115.165 27.0895V15.126H117.297V25.1784H123.674V27.0895H115.165Z" fill="white"/>
<path d="M127.376 27.0894L132.725 15.0303H134.702L140.052 27.0894H137.803L136.563 24.2036H130.826L129.585 27.0894H127.376ZM131.601 22.3307H135.788L133.694 17.5338L131.601 22.3307Z" fill="white"/>
<path d="M144.954 27.0895V15.126H147.222L150.924 20.7829L154.606 15.126H156.874V27.0895H154.742V18.5086L150.904 24.1464H150.827L147.028 18.5469V27.0895H144.954Z" fill="white"/>
<path d="M163.31 27.0895V15.126H172.303V16.9989H165.442V20.114H171.527V21.9869H165.442V25.1975H172.4V27.0704H163.31V27.0895Z" fill="white"/>
<path d="M178.214 27.0895V15.126H182.749C184.649 15.126 186.199 15.6993 187.401 16.8269C188.602 17.9544 189.203 19.3878 189.203 21.1078C189.203 22.8086 188.602 24.242 187.401 25.3886C186.199 26.5353 184.649 27.0895 182.769 27.0895H178.214ZM180.346 25.1784H182.73C183.99 25.1784 184.997 24.7962 185.773 24.0509C186.548 23.2864 186.936 22.3118 186.936 21.1269C186.936 19.942 186.548 18.9673 185.773 18.2029C184.997 17.4384 183.99 17.0562 182.73 17.0562H180.346V25.1784Z" fill="white"/>
<path d="M194.998 27.0895V15.126H197.13V27.0895H194.998Z" fill="white"/>
<path d="M202.344 27.0894L207.693 15.0303H209.67L215.019 27.0894H212.771L211.531 24.2036H205.794L204.553 27.0894H202.344ZM206.55 22.3307H210.736L208.643 17.5338L206.55 22.3307Z" fill="white"/>
<path d="M40.0868 19.78L36.4624 18.8244L37.4315 22.3982C33.6133 25.5898 28.6517 27.52 23.2442 27.52C17.8367 27.52 12.875 25.5898 9.03749 22.4173L10.0066 18.8436L6.38222 19.7991C3.39745 16.3018 1.51744 11.868 1.24609 7.03289L3.43621 5.79067L1.24609 4.52933C1.343 2.98133 1.59496 1.47156 2.00198 0.0191111L23.2248 20.9458L44.467 0C44.8741 1.45244 45.126 2.98133 45.2229 4.54844L43.0522 5.79067L45.2229 7.03289C44.9516 11.868 43.0716 16.2827 40.0868 19.78Z" fill="url(#paint0_linear)"/>
<path d="M27.0623 14.4862L25.1435 13.416L23.2441 12.3267V14.4862V16.6649L25.1435 15.5756L25.9576 15.1169L26.3258 15.7476L26.6941 15.1169L27.0623 14.4862Z" fill="url(#paint1_linear)"/>
<path d="M23.2445 12.3267L28.3225 21.0222L33.4199 29.6987H23.2445H13.0498L18.1472 21.0222L23.2445 12.3267Z" fill="url(#paint2_linear)"/>
<path d="M23.2446 25.3604L26.5007 30.9217L29.7375 36.483H23.2446H16.7324L19.9885 30.9217L23.2446 25.3604Z" fill="url(#paint3_linear)"/>
<path d="M20.4148 32.833L18.4379 40.1143L13.0498 34.7823L20.4148 32.833Z" fill="url(#paint4_linear)"/>
<path d="M26.0547 32.833L33.4391 34.7823L28.0316 40.1143L26.0547 32.833Z" fill="url(#paint5_linear)"/>
<path d="M23.2449 36.4829L27.0631 42.9998H19.4268L23.2449 36.4829Z" fill="url(#paint6_linear)"/>
</g>
<defs>
<linearGradient id="paint0_linear" x1="1.24609" y1="13.7564" x2="45.2316" y2="13.7564" gradientUnits="userSpaceOnUse">
<stop stop-color="#644BD7"/>
<stop offset="1" stop-color="#6991D2"/>
</linearGradient>
<linearGradient id="paint1_linear" x1="23.2388" y1="14.4942" x2="27.0565" y2="14.4942" gradientUnits="userSpaceOnUse">
<stop stop-color="#A56900"/>
<stop offset="1" stop-color="#FFCD73"/>
</linearGradient>
<linearGradient id="paint2_linear" x1="13.0587" y1="21.0143" x2="33.4196" y2="21.0143" gradientUnits="userSpaceOnUse">
<stop stop-color="#32D2B4"/>
<stop offset="1" stop-color="#6991D2"/>
</linearGradient>
<linearGradient id="paint3_linear" x1="16.732" y1="30.9179" x2="29.7467" y2="30.9179" gradientUnits="userSpaceOnUse">
<stop stop-color="#0F4BAA"/>
<stop offset="0.995" stop-color="#6991D2"/>
</linearGradient>
<linearGradient id="paint4_linear" x1="13.045" y1="36.475" x2="20.4186" y2="36.475" gradientUnits="userSpaceOnUse">
<stop stop-color="#32D2B4"/>
<stop offset="1" stop-color="#6991D2"/>
</linearGradient>
<linearGradient id="paint5_linear" x1="26.0596" y1="36.475" x2="33.4332" y2="36.475" gradientUnits="userSpaceOnUse">
<stop stop-color="#32D2B4"/>
<stop offset="1" stop-color="#6991D2"/>
</linearGradient>
<linearGradient id="paint6_linear" x1="20.6328" y1="39.0471" x2="25.7734" y2="44.2604" gradientUnits="userSpaceOnUse">
<stop stop-color="#32D2B4"/>
<stop offset="1" stop-color="#6991D2"/>
</linearGradient>
<clipPath id="clip0">
<rect width="215" height="43" fill="white"/>
</clipPath>
</defs>
</svg>
