<svg width="630" height="336" viewBox="0 0 630 336" fill="none" xmlns="http://www.w3.org/2000/svg">
<ellipse opacity="0.1" cx="338.45" cy="201.732" rx="280.305" ry="83.8643" transform="rotate(-10.66 338.45 201.732)" fill="white"/>
<path d="M477.308 181.464C477.425 181.214 477.317 180.917 477.067 180.8L472.991 178.893C472.741 178.776 472.443 178.884 472.326 179.134C472.209 179.384 472.317 179.682 472.567 179.799L476.19 181.494L474.496 185.117C474.379 185.367 474.487 185.665 474.737 185.782C474.987 185.899 475.284 185.791 475.401 185.541L477.308 181.464ZM290.239 227.463L290.313 227.957L290.239 227.463ZM113.095 236.293L113.052 236.791L113.095 236.293ZM52.362 224.847L52.5248 224.374L52.362 224.847ZM19.7502 204.216L19.3408 204.503L19.7502 204.216ZM18.4978 176.783L18.9475 177.001L18.4978 176.783ZM48.7499 144.965L48.4565 144.561L48.7499 144.965ZM188.309 82.6029L188.163 82.1248L188.309 82.6029ZM380.08 43.7383L380.027 43.2412L380.08 43.7383ZM543.736 44.6585L543.648 45.1507L543.736 44.6585ZM592.211 60.5702L591.954 60.9989L592.211 60.5702ZM610.088 84.6567C610.114 84.9316 610.358 85.1335 610.633 85.1076C610.908 85.0817 611.11 84.8378 611.084 84.5629L610.088 84.6567ZM476.685 180.782C421.589 200.763 355.981 217.01 290.164 226.969L290.313 227.957C356.188 217.991 421.861 201.728 477.026 181.723L476.685 180.782ZM290.164 226.969C224.343 236.927 162.076 240.027 113.138 235.795L113.052 236.791C162.091 241.032 224.44 237.924 290.313 227.957L290.164 226.969ZM113.138 235.795C88.6679 233.679 68.2548 229.792 52.5248 224.374L52.1992 225.32C68.0323 230.773 88.5326 234.671 113.052 236.791L113.138 235.795ZM52.5248 224.374C36.77 218.948 25.8345 212.027 20.1597 203.929L19.3408 204.503C25.1943 212.855 36.3671 219.867 52.1992 225.32L52.5248 224.374ZM20.1597 203.929C14.5429 195.915 14.157 186.856 18.9475 177.001L18.0481 176.564C13.1233 186.696 13.4853 196.149 19.3408 204.503L20.1597 203.929ZM18.9475 177.001C23.7668 167.087 33.8217 156.398 49.0432 145.37L48.4565 144.561C33.1778 155.63 22.9716 166.435 18.0481 176.564L18.9475 177.001ZM49.0432 145.37C79.4719 123.324 128.493 101.404 188.456 83.0811L188.163 82.1248C128.156 100.461 79.0144 122.421 48.4565 144.561L49.0432 145.37ZM188.456 83.0811C248.402 64.7635 315.824 51.0992 380.133 44.2355L380.027 43.2412C315.657 50.1114 248.172 63.7881 188.163 82.1248L188.456 83.0811ZM380.133 44.2355C444.451 37.3707 501.961 37.7029 543.648 45.1507L543.824 44.1663C502.009 36.6955 444.395 36.371 380.027 43.2412L380.133 44.2355ZM543.648 45.1507C564.497 48.8755 580.734 54.2639 591.954 60.9989L592.469 60.1415C581.103 53.3186 564.732 47.9016 543.824 44.1663L543.648 45.1507ZM591.954 60.9989C603.175 67.7349 609.247 75.7311 610.088 84.6567L611.084 84.5629C610.201 75.1979 603.835 66.9651 592.469 60.1415L591.954 60.9989Z" fill="white"/>
<circle cx="178.318" cy="85.7845" r="16.9464" stroke="white"/>
<circle cx="392.908" cy="42.1679" r="9.09554" stroke="white"/>
<circle cx="50.9573" cy="221.866" r="27.4143" stroke="white"/>
<circle cx="303.931" cy="217.505" r="43.1161" stroke="white"/>
</svg>
