<svg width="51" height="28" viewBox="0 0 51 28" fill="none" xmlns="http://www.w3.org/2000/svg">
<path fill-rule="evenodd" clip-rule="evenodd" d="M28.0745 2.8668C22.5008 1.39479 16.8781 0.89698 12.1724 1.43991C7.43789 1.98615 4.06576 3.5324 2.44396 5.65104C0.882242 7.69119 0.919869 10.3119 2.83465 13.2086C4.76831 16.1339 8.45299 19.0572 13.3311 21.4331C18.1969 23.803 23.8828 25.4486 29.4102 26.0844C34.947 26.7213 39.9205 26.2988 43.5007 24.9443C47.0818 23.5894 48.903 21.4585 49.0356 19.0284C49.1587 16.7738 47.8467 14.1356 45.0618 11.5063L45.3284 14.7424C45.351 15.0176 45.1463 15.2591 44.8711 15.2818C44.5959 15.3044 44.3544 15.0997 44.3317 14.8245L43.9623 10.3397C43.9396 10.0645 44.1444 9.823 44.4196 9.80033L48.9044 9.4309C49.1796 9.40823 49.4211 9.61296 49.4437 9.88817C49.4664 10.1634 49.2617 10.4049 48.9865 10.4275L45.665 10.7011C48.6098 13.4548 50.1815 16.3848 50.0342 19.0829C49.8712 22.0676 47.6293 24.4514 43.8545 25.8796C40.0762 27.3091 34.9293 27.7258 29.296 27.0778C23.6592 26.4295 17.8635 24.7529 12.8932 22.3321C7.92765 19.9136 4.06967 16.8904 2.00043 13.76C-0.0755035 10.6195 -0.243826 7.51707 1.6499 5.0432C3.51553 2.60603 7.21837 1.00484 12.0577 0.446495C16.9099 -0.113322 22.6596 0.402447 28.3299 1.89994C28.5969 1.97045 28.7561 2.24405 28.6856 2.51104C28.6151 2.77803 28.3415 2.93731 28.0745 2.8668Z" fill="white"/>
</svg>
