<svg width="464" height="258" viewBox="0 0 464 258" fill="none" xmlns="http://www.w3.org/2000/svg">
<path opacity="0.5" d="M463.912 248.782C464.068 248.553 464.009 248.242 463.781 248.087L460.062 245.552C459.834 245.397 459.523 245.456 459.368 245.684C459.212 245.912 459.271 246.223 459.499 246.379L462.804 248.632L460.551 251.937C460.396 252.165 460.455 252.476 460.683 252.632C460.911 252.787 461.222 252.728 461.378 252.5L463.912 248.782ZM0.00113431 0.53366C4.88388 72.8985 31.4063 117.211 67.6058 142.302C103.786 167.378 149.545 173.192 192.801 168.747C236.059 164.303 276.881 149.593 303.244 133.536C316.415 125.515 326.036 117.123 330.519 109.458C332.765 105.619 333.748 101.917 333.187 98.5156C332.624 95.1006 330.52 92.0789 326.777 89.584L326.223 90.416C329.793 92.7961 331.693 95.5986 332.2 98.6783C332.71 101.771 331.831 105.234 329.656 108.953C325.3 116.401 315.851 124.688 302.724 132.682C276.494 148.657 235.816 163.322 192.699 167.753C149.58 172.183 104.089 166.372 68.1755 141.48C32.2812 116.601 5.86612 72.6015 0.998866 0.46634L0.00113431 0.53366ZM326.777 89.584C319.307 84.6035 310.959 84.3449 302.736 87.5468C294.529 90.7421 286.437 97.3829 279.383 106.227C265.275 123.915 255.212 150.55 256.688 176.591C258.166 202.666 271.217 228.133 303.293 243.381C335.33 258.612 386.298 263.625 463.592 248.991L463.406 248.009C386.2 262.625 335.481 257.576 303.722 242.478C272.001 227.398 259.146 202.272 257.687 176.534C256.226 150.763 266.194 124.366 280.164 106.851C287.149 98.0936 295.108 91.5899 303.098 88.4786C311.072 85.3739 319.068 85.6465 326.223 90.416L326.777 89.584Z" fill="#08A2F7"/>
</svg>
