<svg width="447" height="290" viewBox="0 0 447 290" fill="none" xmlns="http://www.w3.org/2000/svg">
<g clip-path="url(#clip0)">
<rect width="447" height="290" fill="#073CBD"/>
<rect width="447" height="290" fill="url(#paint0_radial)"/>
<g filter="url(#filter0_f)">
<path d="M297.065 82.734C357.697 100.124 406.871 82.609 452.936 125.41C559.578 224.497 387.169 468.577 238.138 473.311C148.468 476.159 95.855 430.578 47.9272 355.872C1.16753 282.987 -32.2863 243.119 -26.5875 151.688C-24.5155 118.445 -14.0325 65.7511 15.0021 37.2786C48.1163 4.80547 82.1689 -20.0364 122.382 -6.05759C163.78 8.33321 221.818 61.1518 297.065 82.734Z" fill="#2564FF"/>
</g>
<g filter="url(#filter1_f)">
<path d="M264.077 213.901C301.497 224.631 344.923 186.383 373.35 212.799C439.161 273.954 332.733 424.628 240.753 427.562C185.41 429.327 152.941 401.196 123.366 355.086C94.5125 310.1 89.241 283.098 92.7651 226.66C94.0464 206.141 102.27 171.227 120.192 153.649C140.632 133.602 156.797 131.798 181.615 140.423C207.164 149.303 217.637 200.585 264.077 213.901Z" fill="#08F7F7"/>
</g>
</g>
<defs>
<filter id="filter0_f" x="-268" y="-228" width="937.452" height="912.162" filterUnits="userSpaceOnUse" color-interpolation-filters="sRGB">
<feFlood flood-opacity="0" result="BackgroundImageFix"/>
<feBlend mode="normal" in="SourceGraphic" in2="BackgroundImageFix" result="shape"/>
<feGaussianBlur stdDeviation="65" result="effect1_foregroundBlur"/>
</filter>
<filter id="filter1_f" x="-59.1973" y="-15.473" width="603.967" height="594.113" filterUnits="userSpaceOnUse" color-interpolation-filters="sRGB">
<feFlood flood-opacity="0" result="BackgroundImageFix"/>
<feBlend mode="normal" in="SourceGraphic" in2="BackgroundImageFix" result="shape"/>
<feGaussianBlur stdDeviation="75.5" result="effect1_foregroundBlur"/>
</filter>
<radialGradient id="paint0_radial" cx="0" cy="0" r="1" gradientUnits="userSpaceOnUse" gradientTransform="translate(159.51 103.292) rotate(30.2509) scale(317.409 313.422)">
<stop stop-color="#040418" stop-opacity="0"/>
<stop offset="1" stop-color="#040418" stop-opacity="0.06"/>
</radialGradient>
<clipPath id="clip0">
<rect width="447" height="290" fill="white"/>
</clipPath>
</defs>
</svg>
