<svg width="569" height="513" viewBox="0 0 569 513" fill="none" xmlns="http://www.w3.org/2000/svg">
<path opacity="0.4" fill-rule="evenodd" clip-rule="evenodd" d="M517.422 356.022L515.943 354.676C517.569 352.889 518.973 350.955 520.147 348.868C521.322 346.782 522.249 344.578 522.934 342.262L524.852 342.829C524.125 345.286 523.14 347.629 521.89 349.85C520.64 352.07 519.147 354.127 517.422 356.022ZM526.255 327.716L524.261 327.872C523.906 323.32 522.906 318.476 521.275 313.371L523.18 312.762C524.85 317.988 525.886 322.986 526.255 327.716ZM517.419 298.652L515.623 299.533C513.53 295.266 511.076 290.874 508.274 286.375L509.971 285.318C512.805 289.867 515.293 294.318 517.419 298.652ZM501.385 272.664L499.771 273.846C496.893 269.914 493.78 265.922 490.442 261.88L491.984 260.607C495.345 264.676 498.482 268.699 501.385 272.664ZM481.984 249.09L480.505 250.436C477.178 246.779 473.681 243.091 470.02 239.381L471.444 237.977C475.123 241.705 478.638 245.412 481.984 249.09ZM460.543 227.318L459.17 228.771C455.555 225.356 451.809 221.928 447.938 218.493L449.265 216.997C453.151 220.445 456.912 223.887 460.543 227.318ZM437.676 207.009L436.392 208.542C432.567 205.338 428.638 202.133 424.609 198.932L425.853 197.366C429.896 200.577 433.838 203.793 437.676 207.009ZM413.776 188.01L412.57 189.605C408.566 186.58 404.476 183.562 400.303 180.556L401.472 178.933C405.657 181.948 409.76 184.975 413.776 188.01ZM388.963 170.13L387.83 171.778C383.688 168.93 379.474 166.096 375.19 163.28L376.289 161.608C380.584 164.432 384.81 167.274 388.963 170.13ZM363.444 153.35L362.379 155.043C358.115 152.361 353.788 149.698 349.402 147.059L350.433 145.345C354.83 147.991 359.168 150.661 363.444 153.35ZM337.266 137.595L336.268 139.328C334.068 138.061 331.854 136.8 329.628 135.546C327.401 134.292 325.175 133.053 322.951 131.828L323.916 130.076C326.145 131.304 328.377 132.546 330.609 133.804C332.841 135.061 335.061 136.325 337.266 137.595ZM310.462 122.835L309.531 124.606C305 122.223 300.481 119.904 295.976 117.647L296.872 115.859C301.388 118.121 305.92 120.447 310.462 122.835ZM283.15 109.157L282.291 110.963C277.662 108.76 273.054 106.625 268.471 104.561L269.293 102.737C273.888 104.808 278.509 106.948 283.15 109.157ZM255.28 96.6047L254.498 98.4456C249.764 96.4354 245.063 94.5023 240.4 92.6471L241.14 90.7888C245.817 92.6497 250.532 94.5886 255.28 96.6047ZM226.878 85.3117C222.036 83.5201 217.242 81.8163 212.503 80.2013L211.858 82.0944C216.58 83.7037 221.358 85.4017 226.184 87.1874L226.878 85.3117ZM197.953 75.4695L197.362 77.3801C192.418 75.8505 187.545 74.4247 182.75 73.1041L183.281 71.1759C188.097 72.5022 192.99 73.9339 197.953 75.4695ZM168.515 67.3806L168.052 69.3262C162.982 68.1194 158.015 67.0408 153.163 66.0919L153.547 64.1291C158.427 65.0834 163.42 66.1678 168.515 67.3806ZM138.515 61.549L138.225 63.5279C133.038 62.7684 128.011 62.1762 123.157 61.7534L123.331 59.7609C128.226 60.1873 133.292 60.7843 138.515 61.549ZM108.059 58.9788C102.7 58.914 97.6038 59.094 92.7952 59.5233L92.973 61.5153C97.707 61.0928 102.735 60.9146 108.035 60.9786L108.059 58.9788ZM77.7424 61.9119L78.2096 63.8565C72.9992 65.1084 68.3377 66.7645 64.2617 68.8205L63.361 67.0348C67.5972 64.898 72.4082 63.1935 77.7424 61.9119ZM51.1651 76.0705C49.4408 77.9655 47.9478 80.0222 46.6974 82.2426C45.447 84.4629 44.4623 86.8059 43.7358 89.2628L45.6537 89.8299C46.3386 87.5138 47.2652 85.3102 48.44 83.2239C49.6149 81.1377 51.0189 79.2029 52.6444 77.4165L51.1651 76.0705ZM42.3321 104.376L44.326 104.221C44.681 108.772 45.6815 113.617 47.3123 118.721L45.4072 119.33C43.7376 114.104 42.701 109.106 42.3321 104.376ZM51.1686 133.44L52.9642 132.559C55.0572 136.826 57.5115 141.218 60.3138 145.717L58.6162 146.774C55.7824 142.225 53.2945 137.774 51.1686 133.44ZM67.2025 159.428L68.8163 158.247C71.6942 162.178 74.807 166.17 78.1457 170.212L76.6037 171.486C73.242 167.416 70.1051 163.393 67.2025 159.428ZM86.6031 183.002L88.0826 181.656C91.4095 185.314 94.9065 189.001 98.5671 192.711L97.1434 194.116C93.4648 190.387 89.9492 186.68 86.6031 183.002ZM108.044 204.775L109.418 203.321C113.033 206.737 116.779 210.165 120.65 213.599L119.322 215.095C115.436 211.647 111.675 208.205 108.044 204.775ZM130.911 225.083C134.75 228.299 138.692 231.515 142.734 234.726L143.978 233.16C139.949 229.959 136.02 226.755 132.196 223.55L130.911 225.083ZM154.812 244.083L156.017 242.487C160.021 245.512 164.111 248.53 168.285 251.536L167.116 253.159C162.93 250.144 158.828 247.117 154.812 244.083ZM179.624 261.962L180.758 260.314C184.899 263.162 189.113 265.996 193.397 268.813L192.298 270.484C188.003 267.66 183.777 264.818 179.624 261.962ZM205.143 278.743L206.208 277.05C210.473 279.732 214.799 282.394 219.185 285.033L218.154 286.747C213.757 284.101 209.419 281.432 205.143 278.743ZM231.321 294.498C233.527 295.768 235.746 297.032 237.978 298.289C240.211 299.546 242.442 300.788 244.672 302.016L245.636 300.264C243.412 299.039 241.187 297.8 238.96 296.546C236.733 295.292 234.519 294.031 232.319 292.764L231.321 294.498ZM258.126 309.257L259.056 307.487C263.587 309.869 268.107 312.189 272.611 314.445L271.715 316.233C267.199 313.971 262.668 311.645 258.126 309.257ZM285.437 322.935L286.297 321.129C290.926 323.333 295.534 325.467 300.116 327.532L299.295 329.355C294.699 327.285 290.079 325.144 285.437 322.935ZM313.307 335.488L314.089 333.647C318.823 335.657 323.524 337.59 328.187 339.445L327.448 341.303C322.771 339.443 318.055 337.504 313.307 335.488ZM341.71 346.781L342.404 344.905C347.23 346.691 352.007 348.389 356.73 349.998L356.085 351.891C351.345 350.276 346.552 348.572 341.71 346.781ZM370.634 356.623L371.225 354.712C376.169 356.242 381.042 357.668 385.838 358.988L385.307 360.916C380.491 359.59 375.597 358.158 370.634 356.623ZM400.072 364.712L400.536 362.766C405.606 363.973 410.572 365.051 415.424 366L415.04 367.963C410.16 367.009 405.168 365.924 400.072 364.712ZM430.072 370.543L430.362 368.564C435.549 369.324 440.577 369.916 445.43 370.339L445.257 372.331C440.361 371.905 435.295 371.308 430.072 370.543ZM460.529 373.113C465.888 373.178 470.984 372.998 475.792 372.569L475.614 370.577C470.88 370.999 465.852 371.178 460.553 371.114L460.529 373.113ZM490.845 370.18L490.378 368.236C495.588 366.984 500.25 365.328 504.326 363.272L505.227 365.057C500.99 367.194 496.179 368.899 490.845 370.18Z" fill="#073CBD"/>
<path opacity="0.5" fill-rule="evenodd" clip-rule="evenodd" d="M387.957 418.599C401.473 415.534 411.08 409.495 416.101 400.578C421.123 391.661 421.307 380.315 416.92 367.168C412.534 354.022 403.64 339.293 390.876 323.895C365.357 293.109 324.652 259.985 274.786 231.903C224.919 203.82 175.491 186.185 135.936 180.324C116.152 177.393 98.9458 177.423 85.4298 180.488C71.9139 183.553 62.3069 189.592 57.2852 198.509C52.2635 207.426 52.0798 218.772 56.4662 231.919C60.8526 245.065 69.7469 259.794 82.5109 275.193C108.029 305.978 148.735 339.102 198.601 367.184C248.467 395.267 297.895 412.902 337.45 418.763C357.235 421.695 374.441 421.664 387.957 418.599ZM197.62 368.927C297.666 425.269 396.264 439.879 417.844 401.56C439.424 363.24 375.814 286.502 275.767 230.16C175.72 173.818 77.1223 159.208 55.5425 197.528C33.9627 235.847 97.5728 312.585 197.62 368.927Z" fill="#073CBD"/>
<path opacity="0.7" fill-rule="evenodd" clip-rule="evenodd" d="M295.641 448.538C304.722 445.942 311.279 441.388 314.893 434.97C318.508 428.552 319.002 420.585 316.514 411.474C314.024 402.351 308.574 392.225 300.529 381.718C284.444 360.71 258.226 338.499 225.66 320.159C193.093 301.818 160.507 290.915 134.204 288.051C121.048 286.619 109.564 287.209 100.472 289.808C91.3913 292.405 84.8343 296.958 81.22 303.376C77.6057 309.794 77.1114 317.762 79.599 326.873C82.0898 335.995 87.5393 346.122 95.5843 356.629C111.67 377.636 137.887 399.848 170.454 418.188C203.021 436.528 235.606 447.432 261.909 450.295C275.065 451.728 286.549 451.138 295.641 448.538ZM169.473 419.93C234.962 456.811 300.849 463.984 316.636 435.952C332.423 407.919 292.13 355.297 226.641 318.416C161.151 281.535 95.2639 274.362 79.4773 302.395C63.6907 330.427 103.983 383.05 169.473 419.93Z" fill="#073CBD"/>
<path fill-rule="evenodd" clip-rule="evenodd" d="M234.044 435.18C244.524 450.16 247.501 463.934 242.106 473.513C236.712 483.093 223.39 487.688 205.147 486.492C187.063 485.308 164.867 478.437 142.914 466.074C120.96 453.711 103.578 438.293 93.1897 423.443C82.7096 408.463 79.7326 394.689 85.1274 385.11C90.5222 375.53 103.843 370.935 122.087 372.13C140.17 373.315 162.367 380.186 184.32 392.549C206.273 404.912 223.656 420.33 234.044 435.18ZM185.301 390.806C229.612 415.76 255.825 453.229 243.849 474.495C231.873 495.761 186.243 492.771 141.932 467.817C97.6213 442.863 71.4087 405.394 83.3848 384.128C95.3608 362.862 140.99 365.852 185.301 390.806Z" fill="#073CBD"/>
<path opacity="0.2" d="M252.468 42.6832C252.59 47.0998 249.108 50.7791 244.692 50.9011C240.275 51.0232 236.596 47.5417 236.474 43.1251C236.352 38.7085 239.833 35.0293 244.25 34.9072C248.666 34.7852 252.346 38.2667 252.468 42.6832Z" fill="#073CBD"/>
<path opacity="0.2" d="M341.436 199.129C341.558 203.545 338.076 207.225 333.66 207.347C329.243 207.469 325.564 203.987 325.442 199.571C325.32 195.154 328.801 191.475 333.218 191.353C337.634 191.231 341.314 194.712 341.436 199.129Z" fill="#073CBD"/>
<path opacity="0.2" d="M514.878 120.856C515 125.272 511.519 128.951 507.102 129.073C502.685 129.196 499.006 125.714 498.884 121.297C498.762 116.881 502.243 113.202 506.66 113.08C511.077 112.958 514.756 116.439 514.878 120.856Z" fill="#073CBD"/>
<path opacity="0.2" d="M228.27 340.499C228.393 344.916 224.911 348.595 220.494 348.717C216.078 348.839 212.399 345.357 212.277 340.941C212.155 336.524 215.636 332.845 220.053 332.723C224.469 332.601 228.148 336.082 228.27 340.499Z" fill="#073CBD"/>
</svg>
