<svg width="162" height="14" viewBox="0 0 162 14" fill="none" xmlns="http://www.w3.org/2000/svg">
<path d="M0 13.0904L5.34932 1.03125H7.32624L12.6756 13.0904H10.4273L9.18687 10.2046H3.44992L2.2095 13.0904H0ZM4.2058 8.3317H8.39223L6.29901 3.53481L4.2058 8.3317Z" fill="#040418"/>
<path d="M27.677 13.4529L26.2234 12.1725C25.1574 12.9178 23.917 13.3 22.5215 13.3C20.6803 13.3 19.1685 12.7076 17.9862 11.5036C16.804 10.2996 16.2031 8.84713 16.2031 7.10802C16.2031 5.40713 16.804 3.93557 18.0056 2.73157C19.2073 1.52757 20.719 0.916016 22.5603 0.916016C24.4015 0.916016 25.9133 1.50846 27.0956 2.71246C28.2779 3.91646 28.8787 5.3689 28.8787 7.10802C28.8787 8.48401 28.4717 9.70713 27.6383 10.7773L29.0338 11.9431L27.677 13.4529ZM22.5603 11.3698C23.3356 11.3698 24.0333 11.1787 24.6341 10.7965L22.5603 9.05735L23.9364 7.50935L26.0296 9.38224C26.4366 8.75157 26.6498 8.00624 26.6498 7.10802C26.6498 5.92313 26.2622 4.91024 25.4869 4.08846C24.7117 3.26668 23.7232 2.84624 22.5215 2.84624C21.3393 2.84624 20.3508 3.24757 19.5755 4.06935C18.8003 4.89113 18.4126 5.90401 18.4126 7.0889C18.4126 8.27379 18.8003 9.28668 19.5755 10.1085C20.3702 10.9493 21.3586 11.3698 22.5603 11.3698Z" fill="#040418"/>
<path d="M39.7317 13.2816C38.123 13.2816 36.8632 12.823 35.9523 11.9247C35.0413 11.0265 34.5762 9.72695 34.5762 8.00695V1.12695H36.7081V7.93051C36.7081 9.01984 36.9795 9.86073 37.5222 10.4532C38.0649 11.0456 38.8207 11.3514 39.7704 11.3514C40.7395 11.3514 41.476 11.0647 42.0187 10.4914C42.5614 9.91806 42.8327 9.09629 42.8327 8.00695V1.12695H44.9647V7.9114C44.9647 9.65051 44.4995 10.9883 43.5692 11.9056C42.6389 12.823 41.3597 13.2816 39.7317 13.2816Z" fill="#040418"/>
<path d="M52 13.0905V1.12695H54.132V13.0905H52Z" fill="#040418"/>
<path d="M61.3242 13.0905V1.12695H63.4562V11.1794H69.8327V13.0905H61.3242Z" fill="#040418"/>
<path d="M73.5332 13.0904L78.8825 1.03125H80.8595L86.2088 13.0904H83.9605L82.7201 10.2046H76.9831L75.7427 13.0904H73.5332ZM77.7584 8.3317H81.9448L79.8516 3.53481L77.7584 8.3317Z" fill="#040418"/>
<path d="M91.1133 13.0905V1.12695H93.3809L97.0828 6.78384L100.765 1.12695H103.033V13.0905H100.901V4.50962L97.0634 10.1474H96.9859L93.1871 4.54784V13.0905H91.1133Z" fill="#040418"/>
<path d="M109.467 13.0905V1.12695H118.46V2.99984H111.599V6.11495H117.685V7.98784H111.599V11.1985H118.557V13.0714H109.467V13.0905Z" fill="#040418"/>
<path d="M124.371 13.0905V1.12695H128.906C130.806 1.12695 132.356 1.70029 133.558 2.82784C134.76 3.9554 135.36 5.38873 135.36 7.10873C135.36 8.80962 134.76 10.243 133.558 11.3896C132.356 12.5363 130.806 13.0905 128.926 13.0905H124.371ZM126.503 11.1794H128.887C130.147 11.1794 131.155 10.7972 131.93 10.0518C132.705 9.2874 133.093 8.31273 133.093 7.12784C133.093 5.94295 132.705 4.96829 131.93 4.20384C131.155 3.4394 130.147 3.05718 128.887 3.05718H126.503V11.1794Z" fill="#040418"/>
<path d="M141.156 13.0905V1.12695H143.288V13.0905H141.156Z" fill="#040418"/>
<path d="M148.502 13.0904L153.851 1.03125H155.828L161.178 13.0904H158.929L157.689 10.2046H151.952L150.711 13.0904H148.502ZM152.708 8.3317H156.894L154.801 3.53481L152.708 8.3317Z" fill="#040418"/>
</svg>
