<svg width="602" height="688" viewBox="0 0 602 688" fill="none" xmlns="http://www.w3.org/2000/svg">
<path d="M424.215 654.918C424.396 654.396 424.119 653.827 423.597 653.647C423.075 653.467 422.505 653.744 422.325 654.266L424.215 654.918ZM407.625 672.817L407.095 671.969L407.095 671.969L407.625 672.817ZM376.442 683.78L376.264 682.797L376.442 683.78ZM279.357 680.501L279.534 679.517L279.357 680.501ZM164.884 645.654L164.488 646.572L164.884 645.654ZM71.669 590.994L72.3066 590.223L71.669 590.994ZM43.4756 561.92L42.6654 562.507L43.4756 561.92ZM31.1843 535.081L32.1723 534.927L32.1723 534.927L31.1843 535.081ZM35.7399 512.839L36.5713 513.394L35.7399 512.839ZM56.7715 496.873L57.1642 497.792L56.7715 496.873ZM140.109 488.825L140.022 489.821L140.109 488.825ZM253.498 514.878C253.995 514.636 254.202 514.037 253.96 513.541L250.021 505.448C249.78 504.952 249.181 504.745 248.684 504.987C248.188 505.229 247.981 505.827 248.223 506.324L251.724 513.517L244.531 517.018C244.034 517.26 243.828 517.858 244.069 518.355C244.311 518.851 244.909 519.058 245.406 518.816L253.498 514.878ZM422.325 654.266C419.943 661.166 414.836 667.133 407.095 671.969L408.155 673.665C416.189 668.645 421.651 662.346 424.215 654.918L422.325 654.266ZM407.095 671.969C399.345 676.811 389 680.489 376.264 682.797L376.62 684.764C389.519 682.428 400.126 678.682 408.155 673.665L407.095 671.969ZM376.264 682.797C350.789 687.412 317.133 686.291 279.534 679.517L279.18 681.485C316.914 688.284 350.828 689.437 376.62 684.764L376.264 682.797ZM279.534 679.517C241.95 672.745 202.185 660.641 165.279 644.735L164.488 646.572C201.526 662.535 241.437 674.685 279.18 681.485L279.534 679.517ZM165.279 644.735C128.369 628.827 96.0186 609.849 72.3066 590.223L71.0314 591.764C94.9262 611.541 127.452 630.61 164.488 646.572L165.279 644.735ZM72.3066 590.223C60.4515 580.411 51.0453 570.677 44.2858 561.334L42.6654 562.507C49.5487 572.02 59.0832 581.875 71.0314 591.764L72.3066 590.223ZM44.2858 561.334C37.5212 551.984 33.4468 543.081 32.1723 534.927L30.1963 535.235C31.5348 543.799 35.7839 552.995 42.6654 562.507L44.2858 561.334ZM32.1723 534.927C30.9032 526.806 32.432 519.588 36.5713 513.394L34.9084 512.283C30.4687 518.926 28.8558 526.659 30.1963 535.235L32.1723 534.927ZM36.5713 513.394C40.7295 507.173 47.5947 501.879 57.1642 497.792L56.3787 495.953C46.5677 500.142 39.3428 505.648 34.9084 512.283L36.5713 513.394ZM57.1642 497.792C76.3293 489.608 105.133 486.785 140.022 489.821L140.195 487.829C105.17 484.781 75.9834 487.581 56.3787 495.953L57.1642 497.792ZM140.022 489.821C174.877 492.854 214.105 501.587 252.734 514.924L253.387 513.033C214.627 499.651 175.238 490.878 140.195 487.829L140.022 489.821Z" fill="white"/>
<path d="M570.668 208.422C570.848 207.9 570.571 207.331 570.049 207.151C569.527 206.971 568.957 207.248 568.777 207.77L570.668 208.422ZM554.077 226.321L553.547 225.473L553.547 225.473L554.077 226.321ZM522.894 237.284L522.716 236.3L522.894 237.284ZM425.809 234.005L425.986 233.021L425.809 234.005ZM311.336 199.158L310.94 200.076L311.336 199.158ZM218.121 144.498L218.759 143.727L218.121 144.498ZM189.928 115.424L189.118 116.01L189.928 115.424ZM177.636 88.5849L178.624 88.4305L178.624 88.4305L177.636 88.5849ZM182.192 66.3427L183.023 66.8983L182.192 66.3427ZM203.224 50.3766L203.616 51.2962L203.224 50.3766ZM286.561 42.3289L286.474 43.3252L286.561 42.3289ZM399.951 68.3815C400.447 68.1398 400.654 67.5413 400.412 67.0447L396.473 58.9523C396.232 58.4557 395.633 58.2491 395.137 58.4908C394.64 58.7325 394.433 59.331 394.675 59.8276L398.176 67.0208L390.983 70.5218C390.486 70.7635 390.28 71.362 390.521 71.8586C390.763 72.3552 391.362 72.5618 391.858 72.3201L399.951 68.3815ZM568.777 207.77C566.395 214.67 561.288 220.637 553.547 225.473L554.607 227.169C562.641 222.149 568.103 215.85 570.668 208.422L568.777 207.77ZM553.547 225.473C545.797 230.315 535.452 233.993 522.716 236.3L523.073 238.268C535.971 235.932 546.578 232.185 554.607 227.169L553.547 225.473ZM522.716 236.3C497.241 240.915 463.585 239.795 425.986 233.021L425.632 234.989C463.366 241.788 497.28 242.941 523.073 238.268L522.716 236.3ZM425.986 233.021C388.402 226.249 348.637 214.145 311.732 198.239L310.94 200.076C347.979 216.039 387.889 228.189 425.632 234.989L425.986 233.021ZM311.732 198.239C274.821 182.331 242.471 163.353 218.759 143.727L217.484 145.268C241.378 165.045 273.904 184.114 310.94 200.076L311.732 198.239ZM218.759 143.727C206.904 133.915 197.497 124.181 190.738 114.838L189.118 116.01C196.001 125.524 205.535 135.379 217.484 145.268L218.759 143.727ZM190.738 114.838C183.973 105.488 179.899 96.5852 178.624 88.4305L176.648 88.7393C177.987 97.3034 182.236 106.499 189.118 116.01L190.738 114.838ZM178.624 88.4305C177.355 80.3101 178.884 73.0919 183.023 66.8983L181.361 65.787C176.921 72.43 175.308 80.1626 176.648 88.7393L178.624 88.4305ZM183.023 66.8983C187.182 60.6765 194.047 55.3826 203.616 51.2962L202.831 49.4569C193.02 53.6464 185.795 59.152 181.361 65.787L183.023 66.8983ZM203.616 51.2962C222.781 43.1123 251.585 40.2892 286.474 43.3252L286.647 41.3327C251.622 38.2849 222.436 41.0853 202.831 49.4569L203.616 51.2962ZM286.474 43.3252C321.329 46.3582 360.557 55.0906 399.187 68.4276L399.839 66.5371C361.08 53.1552 321.691 44.3821 286.647 41.3327L286.474 43.3252Z" fill="white"/>
<path opacity="0.4" d="M386.854 448.451C407.077 461.004 423.901 474.135 436.379 487.087C448.868 500.049 456.702 512.517 459.56 523.77C462.406 534.972 460.273 544.757 453.351 552.684C446.387 560.659 434.623 566.693 418.581 570.331C402.555 573.966 382.674 575.114 360.061 573.685C337.453 572.257 312.586 568.284 286.881 561.987C261.177 555.691 235.149 547.197 210.286 536.992C185.421 526.786 162.217 515.071 141.996 502.521C121.772 489.968 104.949 476.837 92.4704 463.885C79.9818 450.923 72.1475 438.454 69.2893 427.202C66.444 416 68.5765 406.214 75.4983 398.288C82.4629 390.312 94.2265 384.278 110.268 380.64C126.295 377.006 146.175 375.858 168.789 377.286C191.397 378.714 216.264 382.688 241.969 388.984C267.672 395.281 293.7 403.775 318.564 413.98C343.428 424.186 366.633 435.9 386.854 448.451L386.854 448.451Z" stroke="white" stroke-width="2" stroke-linecap="round" stroke-linejoin="round" stroke-dasharray="16 16"/>
<path opacity="0.4" d="M460.081 225.203C480.305 237.755 497.128 250.887 509.607 263.839C522.095 276.801 529.93 289.269 532.788 300.522C535.633 311.724 533.501 321.509 526.579 329.436C519.614 337.411 507.851 343.445 491.809 347.083C475.783 350.718 455.902 351.866 433.289 350.437C410.68 349.009 385.813 345.036 360.109 338.739C334.405 332.443 308.377 323.949 283.513 313.743C258.649 303.538 235.444 291.823 215.223 279.273C195 266.72 178.176 253.588 165.698 240.637C153.209 227.675 145.375 215.206 142.517 203.954C139.671 192.752 141.804 182.966 148.726 175.04C155.69 167.064 167.454 161.03 183.496 157.392C199.522 153.758 219.403 152.61 242.016 154.038C264.624 155.466 289.491 159.44 315.196 165.736C340.9 172.033 366.928 180.526 391.792 190.732C416.656 200.938 439.861 212.652 460.081 225.203L460.081 225.203Z" stroke="white" stroke-width="2" stroke-linecap="round" stroke-linejoin="round" stroke-dasharray="16 16"/>
<path d="M326.614 289.785C326.092 289.605 325.522 289.882 325.342 290.404C325.162 290.926 325.439 291.495 325.961 291.676L326.614 289.785ZM430.698 340.622L430.152 341.46L430.698 340.622ZM491.319 398.371L490.443 398.853L491.319 398.371ZM498.02 423.912L497.023 423.837L498.02 423.912ZM487.883 444.227L487.201 443.496L487.201 443.496L487.883 444.227ZM461.651 457.766L461.375 456.805L461.651 457.766ZM421.526 463.253L421.499 462.253L421.526 463.253ZM314.444 448.76L314.188 449.727L314.444 448.76ZM202.854 405.559L203.322 404.675L202.854 405.559ZM124.426 348.242L125.173 347.577L124.426 348.242ZM106.649 320.375L105.709 320.716L105.709 320.716L106.649 320.375ZM106.479 295.942C106.238 295.445 105.639 295.239 105.143 295.48L97.0503 299.419C96.5537 299.661 96.3471 300.259 96.5888 300.756C96.8305 301.252 97.429 301.459 97.9256 301.217L105.119 297.716L108.62 304.91C108.862 305.406 109.46 305.613 109.957 305.371C110.453 305.129 110.66 304.531 110.418 304.034L106.479 295.942ZM325.961 291.676C364.591 305.013 400.85 322.342 430.152 341.46L431.245 339.785C401.785 320.564 365.373 303.167 326.614 289.785L325.961 291.676ZM430.152 341.46C459.482 360.595 480.409 380.588 490.443 398.853L492.196 397.89C481.932 379.206 460.69 358.995 431.245 339.785L430.152 341.46ZM490.443 398.853C495.453 407.973 497.589 416.375 497.023 423.837L499.017 423.988C499.621 416.03 497.332 407.24 492.196 397.89L490.443 398.853ZM497.023 423.837C496.46 431.265 493.209 437.889 487.201 443.496L488.565 444.958C494.912 439.036 498.413 431.955 499.017 423.988L497.023 423.837ZM487.201 443.496C481.166 449.128 472.467 453.621 461.375 456.805L461.927 458.728C473.211 455.488 482.228 450.873 488.565 444.958L487.201 443.496ZM461.375 456.805C450.291 459.988 436.883 461.845 421.499 462.253L421.552 464.252C437.057 463.841 450.64 461.968 461.927 458.728L461.375 456.805ZM421.499 462.253C390.73 463.069 353.562 458.046 314.699 447.793L314.188 449.727C353.183 460.014 390.546 465.075 421.552 464.252L421.499 462.253ZM314.699 447.793C275.841 437.541 237.079 422.534 203.322 404.675L202.387 406.443C236.285 424.377 275.191 439.438 314.188 449.727L314.699 447.793ZM203.322 404.675C169.552 386.809 142.375 366.927 125.173 347.577L123.678 348.906C141.094 368.497 168.496 388.513 202.387 406.443L203.322 404.675ZM125.173 347.577C116.574 337.904 110.701 328.626 107.589 320.035L105.709 320.716C108.932 329.617 114.969 339.109 123.678 348.906L125.173 347.577ZM107.589 320.035C104.481 311.453 104.143 303.606 106.526 296.706L104.635 296.053C102.071 303.481 102.483 311.808 105.709 320.716L107.589 320.035Z" fill="white"/>
</svg>
