<svg width="129" height="11" viewBox="0 0 129 11" fill="none" xmlns="http://www.w3.org/2000/svg">
<path d="M0 10.5501L4.28138 0.898438H5.86363L10.145 10.5501H8.34559L7.35281 8.24042H2.76118L1.7684 10.5501H0ZM3.36616 6.74143H6.71681L5.04148 2.90219L3.36616 6.74143Z" fill="white"/>
<path d="M22.1501 10.8407L20.9866 9.81585C20.1335 10.4124 19.1407 10.7183 18.0238 10.7183C16.5501 10.7183 15.3402 10.2441 14.3939 9.2805C13.4477 8.31687 12.9668 7.15439 12.9668 5.76247C12.9668 4.40115 13.4477 3.22337 14.4094 2.25974C15.3712 1.29611 16.5812 0.806641 18.0548 0.806641C19.5285 0.806641 20.7384 1.28081 21.6847 2.24444C22.6309 3.20808 23.1118 4.37056 23.1118 5.76247C23.1118 6.86377 22.7861 7.8427 22.119 8.69926L23.2359 9.6323L22.1501 10.8407ZM18.0548 9.17343C18.6753 9.17343 19.2338 9.02047 19.7146 8.71456L18.0548 7.32264L19.1562 6.08368L20.8315 7.58267C21.1573 7.07791 21.3279 6.48137 21.3279 5.76247C21.3279 4.81413 21.0177 4.00346 20.3972 3.34574C19.7767 2.68802 18.9856 2.35151 18.0238 2.35151C17.0776 2.35151 16.2864 2.67273 15.6659 3.33044C15.0454 3.98816 14.7352 4.79884 14.7352 5.74718C14.7352 6.69551 15.0454 7.50619 15.6659 8.16391C16.3019 8.83692 17.0931 9.17343 18.0548 9.17343Z" fill="white"/>
<path d="M31.8001 10.7027C30.5126 10.7027 29.5043 10.3356 28.7752 9.61672C28.0461 8.89782 27.6738 7.85771 27.6738 6.48109V0.974609H29.3802V6.41991C29.3802 7.29177 29.5973 7.96478 30.0317 8.43895C30.466 8.91312 31.071 9.15785 31.8311 9.15785C32.6067 9.15785 33.1962 8.92841 33.6305 8.46954C34.0649 8.01067 34.282 7.35295 34.282 6.48109V0.974609H35.9884V6.40461C35.9884 7.79653 35.6161 8.86723 34.8715 9.60143C34.1269 10.3356 33.1031 10.7027 31.8001 10.7027Z" fill="white"/>
<path d="M41.6191 10.5498V0.974609H43.3255V10.5498H41.6191Z" fill="white"/>
<path d="M49.082 10.5498V0.974609H50.7884V9.02019H55.8919V10.5498H49.082Z" fill="white"/>
<path d="M58.8535 10.5501L63.1349 0.898438H64.7172L68.9985 10.5501H67.1991L66.2063 8.24042H61.6147L60.6219 10.5501H58.8535ZM62.2352 6.74143H65.5858L63.9105 2.90219L62.2352 6.74143Z" fill="white"/>
<path d="M72.9238 10.5498V0.974609H74.7388L77.7016 5.50216L80.6489 0.974609H82.4638V10.5498H80.7575V3.68196L77.6861 8.19422H77.624L74.5836 3.71255V10.5498H72.9238Z" fill="white"/>
<path d="M87.6113 10.5498V0.974609H94.809V2.4736H89.3177V4.96681H94.1885V6.4658H89.3177V9.03549H94.8866V10.5345H87.6113V10.5498Z" fill="white"/>
<path d="M99.543 10.5498V0.974609H103.173C104.693 0.974609 105.934 1.43348 106.896 2.33593C107.858 3.23839 108.338 4.38557 108.338 5.76219C108.338 7.12351 107.858 8.2707 106.896 9.18844C105.934 10.1062 104.693 10.5498 103.188 10.5498H99.543ZM101.249 9.02019H103.157C104.166 9.02019 104.972 8.71427 105.593 8.11774C106.213 7.50591 106.523 6.72582 106.523 5.77749C106.523 4.82915 106.213 4.04906 105.593 3.43723C104.972 2.8254 104.166 2.51948 103.157 2.51948H101.249V9.02019Z" fill="white"/>
<path d="M112.977 10.5498V0.974609H114.683V10.5498H112.977Z" fill="white"/>
<path d="M118.854 10.5501L123.135 0.898438H124.717L128.999 10.5501H127.199L126.206 8.24042H121.615L120.622 10.5501H118.854ZM122.22 6.74143H125.57L123.895 2.90219L122.22 6.74143Z" fill="white"/>
</svg>
