<svg id="Layer_1" data-name="Layer 1" xmlns="http://www.w3.org/2000/svg" viewBox="0 0 50 46.23"><defs><style>.cls-1{fill:#fff;}</style></defs><path class="cls-1" d="M6.83,12.67l3,2.24a.94.94,0,0,0,1.13,0l3-2.24a2.92,2.92,0,0,0,1.17-2.35V9.83A2.93,2.93,0,0,0,10.85,7.2a1,1,0,0,1-.94,0A2.94,2.94,0,0,0,5.66,9.83v.49A3,3,0,0,0,6.83,12.67Zm.72-2.84a1.06,1.06,0,0,1,1-1.06.94.94,0,0,1,.47.12,3,3,0,0,0,2.63,0,1,1,0,0,1,1.52.94v.49a1.05,1.05,0,0,1-.42.84L10.38,13,8,11.16a1,1,0,0,1-.42-.84Z"/><path class="cls-1" d="M19.81,15.09H28.3a1,1,0,0,0,.94-.8l.94-6.61a.95.95,0,0,0-.93-1.08H27.36V4.72a1,1,0,0,0-.94-.95H23.59a1,1,0,0,0-.79.42L21.19,6.6H19.81a1,1,0,0,0-.94,1v6.6A.94.94,0,0,0,19.81,15.09Zm.94-6.6h.95a.94.94,0,0,0,.78-.42l1.61-2.41h1.38V7.55a.94.94,0,0,0,1,.94h1.74l-.68,4.72H20.75Z"/><path class="cls-1" d="M35.9,11l-.57,2.87a.93.93,0,0,0,.32.91.94.94,0,0,0,1,.15l3-1.21,3,1.21A.84.84,0,0,0,43,15a1,1,0,0,0,.93-1.13L43.34,11,45,9.31a1,1,0,0,0,.24-.92.93.93,0,0,0-.68-.66l-2.33-.58L40.42,4.22a1,1,0,0,0-1.6,0L37,7.15l-2.32.58a.93.93,0,0,0-.68.66,1,1,0,0,0,.24.92Zm1.93-2.09a.93.93,0,0,0,.57-.42l1.22-2,1.22,2a1,1,0,0,0,.57.42l1.08.27-.84.84a1,1,0,0,0-.26.85l.33,1.67L40,11.81a.94.94,0,0,0-.7,0l-1.75.71.33-1.67a.94.94,0,0,0-.26-.85l-.84-.84Z"/><path class="cls-1" d="M0,5.66v7.55a5.67,5.67,0,0,0,5.66,5.66H30.19v4.32a1.88,1.88,0,0,0,3.22,1.34l5.66-5.66h5.27A5.67,5.67,0,0,0,50,13.21V5.66A5.67,5.67,0,0,0,44.34,0H5.66A5.67,5.67,0,0,0,0,5.66Zm1.89,0A3.77,3.77,0,0,1,5.66,1.89H44.34a3.77,3.77,0,0,1,3.77,3.77v7.55A3.77,3.77,0,0,1,44.34,17H38.68a1,1,0,0,0-.67.28l-5.93,5.93V17.92a1,1,0,0,0-.95-.94H5.66a3.77,3.77,0,0,1-3.77-3.77Z"/><path class="cls-1" d="M27.9,22.81A.94.94,0,0,0,27,22.7l-9.91,3.6a1.77,1.77,0,0,1-.64.12H9A6.13,6.13,0,0,0,7.55,38.51v4.41a3.3,3.3,0,1,0,6.6,0v-.47h.39a3.37,3.37,0,0,0,3.38-3.37L27,42.4a1.13,1.13,0,0,0,.32.05.94.94,0,0,0,.94-.94V37.38l1.57-.79a4,4,0,0,0,0-7.15l-1.57-.78V23.58A1,1,0,0,0,27.9,22.81ZM4.72,32.55A4.24,4.24,0,0,1,9,28.3h1.42v8.49H9A4.24,4.24,0,0,1,4.72,32.55Zm7.54,10.37a1.42,1.42,0,1,1-2.83,0V38.68h2.83ZM16,39.07a1.5,1.5,0,0,1-1.5,1.5h-.39V38.68H16Zm10.38-9.82V40.16L17.77,37a3.77,3.77,0,0,0-1.29-.23H12.26V28.3h4.22a3.55,3.55,0,0,0,1.29-.23l8.65-3.14ZM29,31.13a2.11,2.11,0,0,1,0,3.78l-.72.36v-4.5Z"/></svg>