<svg id="Layer_1" data-name="Layer 1" xmlns="http://www.w3.org/2000/svg" xmlns:xlink="http://www.w3.org/1999/xlink" viewBox="0 0 50 50"><defs><style>.cls-1{fill:none;}.cls-2{clip-path:url(#clip-path);}.cls-3{fill:#fff;}</style><clipPath id="clip-path"><rect class="cls-1" width="50" height="50"/></clipPath></defs><g class="cls-2"><path class="cls-3" d="M44.23,26.42H23.58V5.78a1,1,0,0,0-1-1,22.6,22.6,0,1,0,22.6,22.6A1,1,0,0,0,44.23,26.42ZM2,27.4A20.67,20.67,0,0,1,21.63,6.78V48A20.68,20.68,0,0,1,2,27.4ZM23.58,48V45.26L34.11,34.73a1,1,0,0,0,0-1.38,1,1,0,0,0-1.38,0L23.58,42.5V28.38h7.14l-5,5a1,1,0,1,0,1.38,1.38l6.42-6.41h9.74c0,.52-.07,1.05-.13,1.56L31.59,41.46a1,1,0,0,0,0,1.38,1,1,0,0,0,1.38,0l9.38-9.38A20.69,20.69,0,0,1,23.58,48Z"/><path class="cls-3" d="M43.68,6.32A21.44,21.44,0,0,0,28.43,0a1,1,0,0,0-1,1V21.57a1,1,0,0,0,1,1H49a1,1,0,0,0,1-1A21.4,21.4,0,0,0,43.68,6.32ZM29.4,20.59V2A19.64,19.64,0,0,1,48,20.59Z"/></g></svg>