<svg id="Layer_1" data-name="Layer 1" xmlns="http://www.w3.org/2000/svg" viewBox="0 0 50 50"><defs><style>.cls-1{fill:#fff;}</style></defs><path class="cls-1" d="M45.83,0h-30a4.17,4.17,0,0,0-4.16,4.17V18.33H4.17A4.18,4.18,0,0,0,0,22.5V45.83A4.17,4.17,0,0,0,4.17,50H15.83A4.17,4.17,0,0,0,20,45.83V30h5.83v1.78A3.35,3.35,0,0,0,23.33,35v.83a.85.85,0,0,0,.84.84H37.5a.84.84,0,0,0,.83-.84V35a3.33,3.33,0,0,0-2.5-3.22V30h10A4.17,4.17,0,0,0,50,25.83V4.17A4.17,4.17,0,0,0,45.83,0ZM14.17,20l-1,1.33a.85.85,0,0,1-.67.34h-5a.85.85,0,0,1-.67-.34L5.83,20ZM1.67,22.5A2.49,2.49,0,0,1,3.78,20L5.5,22.33a2.49,2.49,0,0,0,2,1h5a2.49,2.49,0,0,0,2-1L16.22,20a2.49,2.49,0,0,1,2.11,2.46v23a2.5,2.5,0,0,1-2.5,2.5H4.17a2.5,2.5,0,0,1-2.5-2.5Zm35,12.5H25a1.67,1.67,0,0,1,1.67-1.67H35A1.67,1.67,0,0,1,36.67,35Zm-2.5-3.33H27.5V30h6.67Zm14.16-5.84a2.5,2.5,0,0,1-2.5,2.5H20V22.5a4.18,4.18,0,0,0-4.17-4.17h-2.5V4.17a2.5,2.5,0,0,1,2.5-2.5h30a2.5,2.5,0,0,1,2.5,2.5Z"/><path class="cls-1" d="M19.36,11l8.88-4.26a.81.81,0,0,1,1.09.38h0a.81.81,0,0,1-.39,1.08l-8.88,4.26A.82.82,0,0,1,19,12.08h0A.8.8,0,0,1,19.36,11Z"/><rect class="cls-1" x="26.11" y="11.02" width="17.41" height="1.62" rx="0.81" transform="translate(-1.69 16.21) rotate(-25.61)"/><path class="cls-1" d="M24.88,22.53l9-4.31A.82.82,0,0,1,35,18.6h0a.82.82,0,0,1-.38,1.09l-9,4.31a.82.82,0,0,1-1.08-.38h0A.83.83,0,0,1,24.88,22.53Z"/></svg>