<svg width="70" height="70" viewBox="0 0 70 70" fill="none" xmlns="http://www.w3.org/2000/svg">
<path d="M35 70C54.33 70 70 54.33 70 35C70 15.67 54.33 0 35 0C15.67 0 0 15.67 0 35C0 54.33 15.67 70 35 70Z" fill="#039BE5"/>
<path d="M16.0159 34.2408L49.7618 21.2296C51.328 20.6637 52.6959 21.6116 52.1884 23.98L52.1913 23.9771L46.4455 51.0466C46.0197 52.9658 44.8793 53.4325 43.2838 52.5283L34.5339 46.0795L30.3134 50.1454C29.8468 50.612 29.453 51.0058 28.5489 51.0058L29.1701 42.1012L45.3868 27.4508C46.0926 26.8296 45.2293 26.4796 44.2988 27.0979L24.2584 39.7154L15.6193 37.0204C13.7439 36.4254 13.703 35.145 16.0159 34.2408Z" fill="white"/>
</svg>
