<svg width="70" height="70" viewBox="0 0 70 70" fill="none" xmlns="http://www.w3.org/2000/svg">
<path d="M0 33.6C0 17.7608 0 9.84121 4.92061 4.92061C9.84121 0 17.7608 0 33.6 0H36.4C52.2393 0 60.1587 0 65.0794 4.92061C70 9.84121 70 17.7608 70 33.6V36.4C70 52.2393 70 60.1587 65.0794 65.0794C60.1587 70 52.2393 70 36.4 70H33.6C17.7608 70 9.84121 70 4.92061 65.0794C0 60.1587 0 52.2393 0 36.4V33.6Z" fill="#0077FF"/>
<path d="M37.2457 50.4266C21.2915 50.4266 12.1917 39.4891 11.8125 21.2891H19.8042C20.0667 34.6474 25.9582 40.3057 30.6249 41.4724V21.2891H38.1501V32.8099C42.7585 32.3141 47.5996 27.0641 49.2329 21.2891H56.758C55.5039 28.4057 50.2539 33.6557 46.5205 35.8141C50.2539 37.5641 56.2333 42.1432 58.5083 50.4266H50.2247C48.4455 44.8849 44.0126 40.5974 38.1501 40.0141V50.4266H37.2457Z" fill="white"/>
</svg>
