<svg id="Layer_1" data-name="Layer 1" xmlns="http://www.w3.org/2000/svg" viewBox="0 0 30 30"><defs><style>.cls-1{fill:#073cbd;}</style></defs><path class="cls-1" d="M28.75,13.22l-8.66-3.15a.46.46,0,0,1-.16-.16L16.78,1.25a1.89,1.89,0,0,0-.69-.91,1.92,1.92,0,0,0-2.18,0,1.89,1.89,0,0,0-.69.91L10.07,9.91a.46.46,0,0,1-.16.16L1.25,13.22a1.89,1.89,0,0,0-.91.69,1.92,1.92,0,0,0,0,2.18,1.89,1.89,0,0,0,.91.69l8.66,3.15a.46.46,0,0,1,.16.16l3.15,8.66a1.89,1.89,0,0,0,.69.91,1.92,1.92,0,0,0,2.18,0,1.89,1.89,0,0,0,.69-.91l3.15-8.66h0a.46.46,0,0,1,.16-.16l8.66-3.15a1.89,1.89,0,0,0,.91-.69,1.92,1.92,0,0,0,0-2.18A1.89,1.89,0,0,0,28.75,13.22Zm-.56,2L19.54,18.4a1.86,1.86,0,0,0-1.14,1.14h0l-3.14,8.65a.27.27,0,0,1-.1.13.28.28,0,0,1-.32,0,.27.27,0,0,1-.1-.13L11.6,19.54a1.86,1.86,0,0,0-1.14-1.14L1.81,15.26a.27.27,0,0,1-.13-.1.28.28,0,0,1,0-.32.27.27,0,0,1,.13-.1l8.65-3.14a1.86,1.86,0,0,0,1.14-1.14l3.14-8.65a.27.27,0,0,1,.1-.13.28.28,0,0,1,.32,0,.27.27,0,0,1,.1.13l3.14,8.65a1.86,1.86,0,0,0,1.14,1.14l8.65,3.14a.27.27,0,0,1,.13.1.28.28,0,0,1,0,.32A.27.27,0,0,1,28.19,15.26Z"/></svg>